  0
SECTION
  2
BLOCKS
  0
ENDSEC
  0
SECTION
  2
ENTITIES
  0
LINE
  8
0
 10
-31.75
 11
-31.576
 20
0
 21
3.319
  0
LINE
  8
0
 10
-31.576
 11
-31.132
 20
3.319
 21
6.123
  0
LINE
  8
0
 10
-31.132
 11
-30.719
 20
6.123
 21
6.013
  0
LINE
  8
0
 10
-30.719
 11
-29.616
 20
6.013
 21
5.838
  0
LINE
  8
0
 10
-29.616
 11
-28.5
 20
5.838
 21
5.779
  0
LINE
  8
0
 10
-28.5
 11
-27.384
 20
5.779
 21
5.838
  0
LINE
  8
0
 10
-27.384
 11
-26.281
 20
5.838
 21
6.013
  0
LINE
  8
0
 10
-26.281
 11
-25.201
 20
6.013
 21
6.302
  0
LINE
  8
0
 10
-25.201
 11
-24.158
 20
6.302
 21
6.702
  0
LINE
  8
0
 10
-24.158
 11
-23.162
 20
6.702
 21
7.21
  0
LINE
  8
0
 10
-23.162
 11
-22.225
 20
7.21
 21
7.818
  0
LINE
  8
0
 10
-22.225
 11
-21.357
 20
7.818
 21
8.521
  0
LINE
  8
0
 10
-21.357
 11
-20.567
 20
8.521
 21
9.312
  0
LINE
  8
0
 10
-20.567
 11
-19.864
 20
9.312
 21
10.18
  0
LINE
  8
0
 10
-19.864
 11
-19.255
 20
10.18
 21
11.117
  0
LINE
  8
0
 10
-19.255
 11
-18.748
 20
11.117
 21
12.113
  0
LINE
  8
0
 10
-18.748
 11
-18.347
 20
12.113
 21
13.156
  0
LINE
  8
0
 10
-18.347
 11
-18.058
 20
13.156
 21
14.235
  0
LINE
  8
0
 10
-18.058
 11
-17.883
 20
14.235
 21
15.339
  0
LINE
  8
0
 10
-17.883
 11
-17.825
 20
15.339
 21
16.454
  0
LINE
  8
0
 10
-17.825
 11
-17.883
 20
16.454
 21
17.57
  0
LINE
  8
0
 10
-17.883
 11
-18.058
 20
17.57
 21
18.674
  0
LINE
  8
0
 10
-18.058
 11
-18.347
 20
18.674
 21
19.753
  0
LINE
  8
0
 10
-18.347
 11
-18.748
 20
19.753
 21
20.796
  0
LINE
  8
0
 10
-18.748
 11
-19.255
 20
20.796
 21
21.792
  0
LINE
  8
0
 10
-19.255
 11
-19.864
 20
21.792
 21
22.729
  0
LINE
  8
0
 10
-19.864
 11
-20.567
 20
22.729
 21
23.597
  0
LINE
  8
0
 10
-20.567
 11
-20.869
 20
23.597
 21
23.899
  0
LINE
  8
0
 10
-20.869
 11
-18.662
 20
23.899
 21
25.686
  0
LINE
  8
0
 10
-18.662
 11
-15.875
 20
25.686
 21
27.496
  0
LINE
  8
0
 10
-15.875
 11
-12.914
 20
27.496
 21
29.005
  0
LINE
  8
0
 10
-12.914
 11
-9.811
 20
29.005
 21
30.196
  0
LINE
  8
0
 10
-9.811
 11
-6.601
 20
30.196
 21
31.056
  0
LINE
  8
0
 10
-6.601
 11
-3.319
 20
31.056
 21
31.576
  0
LINE
  8
0
 10
-3.319
 11
0
 20
31.576
 21
31.75
  0
LINE
  8
0
 10
0
 11
3.319
 20
31.75
 21
31.576
  0
LINE
  8
0
 10
3.319
 11
6.601
 20
31.576
 21
31.056
  0
LINE
  8
0
 10
6.601
 11
9.811
 20
31.056
 21
30.196
  0
LINE
  8
0
 10
9.811
 11
12.914
 20
30.196
 21
29.005
  0
LINE
  8
0
 10
12.914
 11
15.875
 20
29.005
 21
27.496
  0
LINE
  8
0
 10
15.875
 11
18.662
 20
27.496
 21
25.686
  0
LINE
  8
0
 10
18.662
 11
20.622
 20
25.686
 21
24.099
  0
LINE
  8
0
 10
20.622
 11
20.373
 20
24.099
 21
23.611
  0
LINE
  8
0
 10
20.373
 11
19.972
 20
23.611
 21
22.568
  0
LINE
  8
0
 10
19.972
 11
19.683
 20
22.568
 21
21.489
  0
LINE
  8
0
 10
19.683
 11
19.508
 20
21.489
 21
20.385
  0
LINE
  8
0
 10
19.508
 11
19.45
 20
20.385
 21
19.269
  0
LINE
  8
0
 10
19.45
 11
19.508
 20
19.269
 21
18.153
  0
LINE
  8
0
 10
19.508
 11
19.683
 20
18.153
 21
17.05
  0
LINE
  8
0
 10
19.683
 11
19.972
 20
17.05
 21
15.97
  0
LINE
  8
0
 10
19.972
 11
20.373
 20
15.97
 21
14.927
  0
LINE
  8
0
 10
20.373
 11
20.88
 20
14.927
 21
13.932
  0
LINE
  8
0
 10
20.88
 11
21.489
 20
13.932
 21
12.994
  0
LINE
  8
0
 10
21.489
 11
22.192
 20
12.994
 21
12.126
  0
LINE
  8
0
 10
22.192
 11
22.982
 20
12.126
 21
11.336
  0
LINE
  8
0
 10
22.982
 11
23.85
 20
11.336
 21
10.633
  0
LINE
  8
0
 10
23.85
 11
24.787
 20
10.633
 21
10.024
  0
LINE
  8
0
 10
24.787
 11
25.783
 20
10.024
 21
9.517
  0
LINE
  8
0
 10
25.783
 11
26.826
 20
9.517
 21
9.117
  0
LINE
  8
0
 10
26.826
 11
27.906
 20
9.117
 21
8.827
  0
LINE
  8
0
 10
27.906
 11
29.009
 20
8.827
 21
8.653
  0
LINE
  8
0
 10
29.009
 11
30.125
 20
8.653
 21
8.594
  0
LINE
  8
0
 10
30.125
 11
30.517
 20
8.594
 21
8.615
  0
LINE
  8
0
 10
30.517
 11
31.056
 20
8.615
 21
6.601
  0
LINE
  8
0
 10
31.056
 11
31.576
 20
6.601
 21
3.319
  0
LINE
  8
0
 10
31.576
 11
31.75
 20
3.319
 21
0
  0
LINE
  8
0
 10
31.75
 11
31.576
 20
0
 21
-3.319
  0
LINE
  8
0
 10
31.576
 11
31.056
 20
-3.319
 21
-6.601
  0
LINE
  8
0
 10
31.056
 11
30.196
 20
-6.601
 21
-9.811
  0
LINE
  8
0
 10
30.196
 11
29.005
 20
-9.811
 21
-12.914
  0
LINE
  8
0
 10
29.005
 11
27.496
 20
-12.914
 21
-15.875
  0
LINE
  8
0
 10
27.496
 11
25.686
 20
-15.875
 21
-18.662
  0
LINE
  8
0
 10
25.686
 11
23.595
 20
-18.662
 21
-21.245
  0
LINE
  8
0
 10
23.595
 11
21.245
 20
-21.245
 21
-23.595
  0
LINE
  8
0
 10
21.245
 11
18.662
 20
-23.595
 21
-25.686
  0
LINE
  8
0
 10
18.662
 11
15.875
 20
-25.686
 21
-27.496
  0
LINE
  8
0
 10
15.875
 11
12.914
 20
-27.496
 21
-29.005
  0
LINE
  8
0
 10
12.914
 11
9.811
 20
-29.005
 21
-30.196
  0
LINE
  8
0
 10
9.811
 11
7.798
 20
-30.196
 21
-30.736
  0
LINE
  8
0
 10
7.798
 11
7.62
 20
-30.736
 21
-30.386
  0
LINE
  8
0
 10
7.62
 11
7.011
 20
-30.386
 21
-29.449
  0
LINE
  8
0
 10
7.011
 11
6.308
 20
-29.449
 21
-28.581
  0
LINE
  8
0
 10
6.308
 11
5.518
 20
-28.581
 21
-27.79
  0
LINE
  8
0
 10
5.518
 11
4.65
 20
-27.79
 21
-27.087
  0
LINE
  8
0
 10
4.65
 11
3.713
 20
-27.087
 21
-26.479
  0
LINE
  8
0
 10
3.713
 11
2.717
 20
-26.479
 21
-25.971
  0
LINE
  8
0
 10
2.717
 11
1.674
 20
-25.971
 21
-25.571
  0
LINE
  8
0
 10
1.674
 11
0.594
 20
-25.571
 21
-25.282
  0
LINE
  8
0
 10
0.594
 11
-0.509
 20
-25.282
 21
-25.107
  0
LINE
  8
0
 10
-0.509
 11
-1.625
 20
-25.107
 21
-25.049
  0
LINE
  8
0
 10
-1.625
 11
-2.741
 20
-25.049
 21
-25.107
  0
LINE
  8
0
 10
-2.741
 11
-3.844
 20
-25.107
 21
-25.282
  0
LINE
  8
0
 10
-3.844
 11
-4.924
 20
-25.282
 21
-25.571
  0
LINE
  8
0
 10
-4.924
 11
-5.967
 20
-25.571
 21
-25.971
  0
LINE
  8
0
 10
-5.967
 11
-6.962
 20
-25.971
 21
-26.479
  0
LINE
  8
0
 10
-6.962
 11
-7.9
 20
-26.479
 21
-27.087
  0
LINE
  8
0
 10
-7.9
 11
-8.768
 20
-27.087
 21
-27.79
  0
LINE
  8
0
 10
-8.768
 11
-9.558
 20
-27.79
 21
-28.581
  0
LINE
  8
0
 10
-9.558
 11
-10.261
 20
-28.581
 21
-29.449
  0
LINE
  8
0
 10
-10.261
 11
-10.56
 20
-29.449
 21
-29.909
  0
LINE
  8
0
 10
-10.56
 11
-12.914
 20
-29.909
 21
-29.005
  0
LINE
  8
0
 10
-12.914
 11
-15.875
 20
-29.005
 21
-27.496
  0
LINE
  8
0
 10
-15.875
 11
-18.662
 20
-27.496
 21
-25.686
  0
LINE
  8
0
 10
-18.662
 11
-21.245
 20
-25.686
 21
-23.595
  0
LINE
  8
0
 10
-21.245
 11
-23.595
 20
-23.595
 21
-21.245
  0
LINE
  8
0
 10
-23.595
 11
-25.686
 20
-21.245
 21
-18.662
  0
LINE
  8
0
 10
-25.686
 11
-27.496
 20
-18.662
 21
-15.875
  0
LINE
  8
0
 10
-27.496
 11
-29.005
 20
-15.875
 21
-12.914
  0
LINE
  8
0
 10
-29.005
 11
-30.196
 20
-12.914
 21
-9.811
  0
LINE
  8
0
 10
-30.196
 11
-31.056
 20
-9.811
 21
-6.601
  0
LINE
  8
0
 10
-31.056
 11
-31.576
 20
-6.601
 21
-3.319
  0
LINE
  8
0
 10
-31.576
 11
-31.75
 20
-3.319
 21
0
  0
LINE
  8
0
 10
-21.35
 11
-21.292
 20
-6.163
 21
-5.047
  0
LINE
  8
0
 10
-21.292
 11
-21.117
 20
-5.047
 21
-3.944
  0
LINE
  8
0
 10
-21.117
 11
-20.828
 20
-3.944
 21
-2.864
  0
LINE
  8
0
 10
-20.828
 11
-20.427
 20
-2.864
 21
-1.821
  0
LINE
  8
0
 10
-20.427
 11
-19.92
 20
-1.821
 21
-0.826
  0
LINE
  8
0
 10
-19.92
 11
-19.311
 20
-0.826
 21
0.111
  0
LINE
  8
0
 10
-19.311
 11
-18.608
 20
0.111
 21
0.98
  0
LINE
  8
0
 10
-18.608
 11
-17.818
 20
0.98
 21
1.77
  0
LINE
  8
0
 10
-17.818
 11
-16.95
 20
1.77
 21
2.473
  0
LINE
  8
0
 10
-16.95
 11
-16.012
 20
2.473
 21
3.082
  0
LINE
  8
0
 10
-16.012
 11
-15.017
 20
3.082
 21
3.589
  0
LINE
  8
0
 10
-15.017
 11
-13.974
 20
3.589
 21
3.989
  0
LINE
  8
0
 10
-13.974
 11
-12.894
 20
3.989
 21
4.279
  0
LINE
  8
0
 10
-12.894
 11
-11.791
 20
4.279
 21
4.453
  0
LINE
  8
0
 10
-11.791
 11
-10.675
 20
4.453
 21
4.512
  0
LINE
  8
0
 10
-10.675
 11
-9.559
 20
4.512
 21
4.453
  0
LINE
  8
0
 10
-9.559
 11
-8.456
 20
4.453
 21
4.279
  0
LINE
  8
0
 10
-8.456
 11
-7.376
 20
4.279
 21
3.989
  0
LINE
  8
0
 10
-7.376
 11
-6.333
 20
3.989
 21
3.589
  0
LINE
  8
0
 10
-6.333
 11
-6.186
 20
3.589
 21
3.514
  0
LINE
  8
0
 10
-6.186
 11
-6.163
 20
3.514
 21
3.558
  0
LINE
  8
0
 10
-6.163
 11
-6.136
 20
3.558
 21
3.6
  0
LINE
  8
0
 10
-6.136
 11
-6.275
 20
3.6
 21
3.69
  0
LINE
  8
0
 10
-6.275
 11
-7.143
 20
3.69
 21
4.393
  0
LINE
  8
0
 10
-7.143
 11
-7.933
 20
4.393
 21
5.183
  0
LINE
  8
0
 10
-7.933
 11
-8.636
 20
5.183
 21
6.052
  0
LINE
  8
0
 10
-8.636
 11
-9.245
 20
6.052
 21
6.989
  0
LINE
  8
0
 10
-9.245
 11
-9.752
 20
6.989
 21
7.985
  0
LINE
  8
0
 10
-9.752
 11
-10.153
 20
7.985
 21
9.028
  0
LINE
  8
0
 10
-10.153
 11
-10.442
 20
9.028
 21
10.107
  0
LINE
  8
0
 10
-10.442
 11
-10.617
 20
10.107
 21
11.211
  0
LINE
  8
0
 10
-10.617
 11
-10.675
 20
11.211
 21
12.326
  0
LINE
  8
0
 10
-10.675
 11
-10.617
 20
12.326
 21
13.442
  0
LINE
  8
0
 10
-10.617
 11
-10.442
 20
13.442
 21
14.546
  0
LINE
  8
0
 10
-10.442
 11
-10.153
 20
14.546
 21
15.625
  0
LINE
  8
0
 10
-10.153
 11
-9.752
 20
15.625
 21
16.668
  0
LINE
  8
0
 10
-9.752
 11
-9.245
 20
16.668
 21
17.664
  0
LINE
  8
0
 10
-9.245
 11
-8.636
 20
17.664
 21
18.601
  0
LINE
  8
0
 10
-8.636
 11
-7.933
 20
18.601
 21
19.469
  0
LINE
  8
0
 10
-7.933
 11
-7.143
 20
19.469
 21
20.259
  0
LINE
  8
0
 10
-7.143
 11
-6.275
 20
20.259
 21
20.963
  0
LINE
  8
0
 10
-6.275
 11
-5.337
 20
20.963
 21
21.571
  0
LINE
  8
0
 10
-5.337
 11
-4.342
 20
21.571
 21
22.079
  0
LINE
  8
0
 10
-4.342
 11
-3.299
 20
22.079
 21
22.479
  0
LINE
  8
0
 10
-3.299
 11
-2.219
 20
22.479
 21
22.768
  0
LINE
  8
0
 10
-2.219
 11
-1.116
 20
22.768
 21
22.943
  0
LINE
  8
0
 10
-1.116
 11
0
 20
22.943
 21
23.001
  0
LINE
  8
0
 10
0
 11
1.116
 20
23.001
 21
22.943
  0
LINE
  8
0
 10
1.116
 11
2.219
 20
22.943
 21
22.768
  0
LINE
  8
0
 10
2.219
 11
3.299
 20
22.768
 21
22.479
  0
LINE
  8
0
 10
3.299
 11
4.342
 20
22.479
 21
22.079
  0
LINE
  8
0
 10
4.342
 11
5.337
 20
22.079
 21
21.571
  0
LINE
  8
0
 10
5.337
 11
6.275
 20
21.571
 21
20.963
  0
LINE
  8
0
 10
6.275
 11
7.143
 20
20.963
 21
20.259
  0
LINE
  8
0
 10
7.143
 11
7.933
 20
20.259
 21
19.469
  0
LINE
  8
0
 10
7.933
 11
8.636
 20
19.469
 21
18.601
  0
LINE
  8
0
 10
8.636
 11
9.245
 20
18.601
 21
17.664
  0
LINE
  8
0
 10
9.245
 11
9.752
 20
17.664
 21
16.668
  0
LINE
  8
0
 10
9.752
 11
10.153
 20
16.668
 21
15.625
  0
LINE
  8
0
 10
10.153
 11
10.442
 20
15.625
 21
14.546
  0
LINE
  8
0
 10
10.442
 11
10.617
 20
14.546
 21
13.442
  0
LINE
  8
0
 10
10.617
 11
10.675
 20
13.442
 21
12.326
  0
LINE
  8
0
 10
10.675
 11
10.617
 20
12.326
 21
11.211
  0
LINE
  8
0
 10
10.617
 11
10.442
 20
11.211
 21
10.107
  0
LINE
  8
0
 10
10.442
 11
10.153
 20
10.107
 21
9.028
  0
LINE
  8
0
 10
10.153
 11
9.752
 20
9.028
 21
7.985
  0
LINE
  8
0
 10
9.752
 11
9.245
 20
7.985
 21
6.989
  0
LINE
  8
0
 10
9.245
 11
8.636
 20
6.989
 21
6.052
  0
LINE
  8
0
 10
8.636
 11
7.933
 20
6.052
 21
5.183
  0
LINE
  8
0
 10
7.933
 11
7.143
 20
5.183
 21
4.393
  0
LINE
  8
0
 10
7.143
 11
6.275
 20
4.393
 21
3.69
  0
LINE
  8
0
 10
6.275
 11
6.136
 20
3.69
 21
3.6
  0
LINE
  8
0
 10
6.136
 11
6.163
 20
3.6
 21
3.558
  0
LINE
  8
0
 10
6.163
 11
6.186
 20
3.558
 21
3.514
  0
LINE
  8
0
 10
6.186
 11
6.333
 20
3.514
 21
3.589
  0
LINE
  8
0
 10
6.333
 11
7.376
 20
3.589
 21
3.989
  0
LINE
  8
0
 10
7.376
 11
8.456
 20
3.989
 21
4.279
  0
LINE
  8
0
 10
8.456
 11
9.559
 20
4.279
 21
4.453
  0
LINE
  8
0
 10
9.559
 11
10.675
 20
4.453
 21
4.512
  0
LINE
  8
0
 10
10.675
 11
11.791
 20
4.512
 21
4.453
  0
LINE
  8
0
 10
11.791
 11
12.894
 20
4.453
 21
4.279
  0
LINE
  8
0
 10
12.894
 11
13.974
 20
4.279
 21
3.989
  0
LINE
  8
0
 10
13.974
 11
15.017
 20
3.989
 21
3.589
  0
LINE
  8
0
 10
15.017
 11
16.012
 20
3.589
 21
3.082
  0
LINE
  8
0
 10
16.012
 11
16.95
 20
3.082
 21
2.473
  0
LINE
  8
0
 10
16.95
 11
17.818
 20
2.473
 21
1.77
  0
LINE
  8
0
 10
17.818
 11
18.608
 20
1.77
 21
0.98
  0
LINE
  8
0
 10
18.608
 11
19.311
 20
0.98
 21
0.111
  0
LINE
  8
0
 10
19.311
 11
19.92
 20
0.111
 21
-0.826
  0
LINE
  8
0
 10
19.92
 11
20.427
 20
-0.826
 21
-1.821
  0
LINE
  8
0
 10
20.427
 11
20.828
 20
-1.821
 21
-2.864
  0
LINE
  8
0
 10
20.828
 11
21.117
 20
-2.864
 21
-3.944
  0
LINE
  8
0
 10
21.117
 11
21.292
 20
-3.944
 21
-5.047
  0
LINE
  8
0
 10
21.292
 11
21.35
 20
-5.047
 21
-6.163
  0
LINE
  8
0
 10
21.35
 11
21.292
 20
-6.163
 21
-7.279
  0
LINE
  8
0
 10
21.292
 11
21.117
 20
-7.279
 21
-8.383
  0
LINE
  8
0
 10
21.117
 11
20.828
 20
-8.383
 21
-9.462
  0
LINE
  8
0
 10
20.828
 11
20.427
 20
-9.462
 21
-10.505
  0
LINE
  8
0
 10
20.427
 11
19.92
 20
-10.505
 21
-11.501
  0
LINE
  8
0
 10
19.92
 11
19.311
 20
-11.501
 21
-12.438
  0
LINE
  8
0
 10
19.311
 11
18.608
 20
-12.438
 21
-13.306
  0
LINE
  8
0
 10
18.608
 11
17.818
 20
-13.306
 21
-14.096
  0
LINE
  8
0
 10
17.818
 11
16.95
 20
-14.096
 21
-14.799
  0
LINE
  8
0
 10
16.95
 11
16.012
 20
-14.799
 21
-15.408
  0
LINE
  8
0
 10
16.012
 11
15.017
 20
-15.408
 21
-15.915
  0
LINE
  8
0
 10
15.017
 11
13.974
 20
-15.915
 21
-16.316
  0
LINE
  8
0
 10
13.974
 11
12.894
 20
-16.316
 21
-16.605
  0
LINE
  8
0
 10
12.894
 11
11.791
 20
-16.605
 21
-16.78
  0
LINE
  8
0
 10
11.791
 11
10.675
 20
-16.78
 21
-16.838
  0
LINE
  8
0
 10
10.675
 11
9.559
 20
-16.838
 21
-16.78
  0
LINE
  8
0
 10
9.559
 11
8.456
 20
-16.78
 21
-16.605
  0
LINE
  8
0
 10
8.456
 11
7.376
 20
-16.605
 21
-16.316
  0
LINE
  8
0
 10
7.376
 11
6.333
 20
-16.316
 21
-15.915
  0
LINE
  8
0
 10
6.333
 11
5.337
 20
-15.915
 21
-15.408
  0
LINE
  8
0
 10
5.337
 11
4.4
 20
-15.408
 21
-14.799
  0
LINE
  8
0
 10
4.4
 11
3.532
 20
-14.799
 21
-14.096
  0
LINE
  8
0
 10
3.532
 11
2.742
 20
-14.096
 21
-13.306
  0
LINE
  8
0
 10
2.742
 11
2.039
 20
-13.306
 21
-12.438
  0
LINE
  8
0
 10
2.039
 11
1.43
 20
-12.438
 21
-11.501
  0
LINE
  8
0
 10
1.43
 11
0.923
 20
-11.501
 21
-10.505
  0
LINE
  8
0
 10
0.923
 11
0.522
 20
-10.505
 21
-9.462
  0
LINE
  8
0
 10
0.522
 11
0.233
 20
-9.462
 21
-8.383
  0
LINE
  8
0
 10
0.233
 11
0.058
 20
-8.383
 21
-7.279
  0
LINE
  8
0
 10
0.058
 11
0.05
 20
-7.279
 21
-7.114
  0
LINE
  8
0
 10
0.05
 11
0
 20
-7.114
 21
-7.117
  0
LINE
  8
0
 10
0
 11
-0.05
 20
-7.117
 21
-7.114
  0
LINE
  8
0
 10
-0.05
 11
-0.058
 20
-7.114
 21
-7.279
  0
LINE
  8
0
 10
-0.058
 11
-0.233
 20
-7.279
 21
-8.383
  0
LINE
  8
0
 10
-0.233
 11
-0.522
 20
-8.383
 21
-9.462
  0
LINE
  8
0
 10
-0.522
 11
-0.923
 20
-9.462
 21
-10.505
  0
LINE
  8
0
 10
-0.923
 11
-1.43
 20
-10.505
 21
-11.501
  0
LINE
  8
0
 10
-1.43
 11
-2.039
 20
-11.501
 21
-12.438
  0
LINE
  8
0
 10
-2.039
 11
-2.742
 20
-12.438
 21
-13.306
  0
LINE
  8
0
 10
-2.742
 11
-3.532
 20
-13.306
 21
-14.096
  0
LINE
  8
0
 10
-3.532
 11
-4.4
 20
-14.096
 21
-14.799
  0
LINE
  8
0
 10
-4.4
 11
-5.337
 20
-14.799
 21
-15.408
  0
LINE
  8
0
 10
-5.337
 11
-6.333
 20
-15.408
 21
-15.915
  0
LINE
  8
0
 10
-6.333
 11
-7.376
 20
-15.915
 21
-16.316
  0
LINE
  8
0
 10
-7.376
 11
-8.456
 20
-16.316
 21
-16.605
  0
LINE
  8
0
 10
-8.456
 11
-9.559
 20
-16.605
 21
-16.78
  0
LINE
  8
0
 10
-9.559
 11
-10.675
 20
-16.78
 21
-16.838
  0
LINE
  8
0
 10
-10.675
 11
-11.791
 20
-16.838
 21
-16.78
  0
LINE
  8
0
 10
-11.791
 11
-12.894
 20
-16.78
 21
-16.605
  0
LINE
  8
0
 10
-12.894
 11
-13.974
 20
-16.605
 21
-16.316
  0
LINE
  8
0
 10
-13.974
 11
-15.017
 20
-16.316
 21
-15.915
  0
LINE
  8
0
 10
-15.017
 11
-16.012
 20
-15.915
 21
-15.408
  0
LINE
  8
0
 10
-16.012
 11
-16.95
 20
-15.408
 21
-14.799
  0
LINE
  8
0
 10
-16.95
 11
-17.818
 20
-14.799
 21
-14.096
  0
LINE
  8
0
 10
-17.818
 11
-18.608
 20
-14.096
 21
-13.306
  0
LINE
  8
0
 10
-18.608
 11
-19.311
 20
-13.306
 21
-12.438
  0
LINE
  8
0
 10
-19.311
 11
-19.92
 20
-12.438
 21
-11.501
  0
LINE
  8
0
 10
-19.92
 11
-20.427
 20
-11.501
 21
-10.505
  0
LINE
  8
0
 10
-20.427
 11
-20.828
 20
-10.505
 21
-9.462
  0
LINE
  8
0
 10
-20.828
 11
-21.117
 20
-9.462
 21
-8.383
  0
LINE
  8
0
 10
-21.117
 11
-21.292
 20
-8.383
 21
-7.279
  0
LINE
  8
0
 10
-21.292
 11
-21.35
 20
-7.279
 21
-6.163
  0
ENDSEC
  0
SECTION
  2
OBJECTS
  0
DICTIONARY
  0
ENDSEC
  0
EOF
