  0
SECTION
  2
BLOCKS
  0
ENDSEC
  0
SECTION
  2
ENTITIES
  0
LINE
  8
0
 10
-36.25
 11
-36.051
 20
0
 21
3.789
  0
LINE
  8
0
 10
-36.051
 11
-35.458
 20
3.789
 21
7.537
  0
LINE
  8
0
 10
-35.458
 11
-34.9
 20
7.537
 21
9.619
  0
LINE
  8
0
 10
-34.9
 11
-30.324
 20
9.619
 21
6.977
  0
LINE
  8
0
 10
-30.324
 11
-29.474
 20
6.977
 21
6.543
  0
LINE
  8
0
 10
-29.474
 11
-28.582
 20
6.543
 21
6.201
  0
LINE
  8
0
 10
-28.582
 11
-27.66
 20
6.201
 21
5.954
  0
LINE
  8
0
 10
-27.66
 11
-26.718
 20
5.954
 21
5.805
  0
LINE
  8
0
 10
-26.718
 11
-25.764
 20
5.805
 21
5.755
  0
LINE
  8
0
 10
-25.764
 11
-24.811
 20
5.755
 21
5.805
  0
LINE
  8
0
 10
-24.811
 11
-23.868
 20
5.805
 21
5.954
  0
LINE
  8
0
 10
-23.868
 11
-22.946
 20
5.954
 21
6.201
  0
LINE
  8
0
 10
-22.946
 11
-22.055
 20
6.201
 21
6.543
  0
LINE
  8
0
 10
-22.055
 11
-21.204
 20
6.543
 21
6.977
  0
LINE
  8
0
 10
-21.204
 11
-20.404
 20
6.977
 21
7.497
  0
LINE
  8
0
 10
-20.404
 11
-19.662
 20
7.497
 21
8.098
  0
LINE
  8
0
 10
-19.662
 11
-18.987
 20
8.098
 21
8.773
  0
LINE
  8
0
 10
-18.987
 11
-18.386
 20
8.773
 21
9.514
  0
LINE
  8
0
 10
-18.386
 11
-17.866
 20
9.514
 21
10.315
  0
LINE
  8
0
 10
-17.866
 11
-17.433
 20
10.315
 21
11.166
  0
LINE
  8
0
 10
-17.433
 11
-17.091
 20
11.166
 21
12.057
  0
LINE
  8
0
 10
-17.091
 11
-16.844
 20
12.057
 21
12.979
  0
LINE
  8
0
 10
-16.844
 11
-16.694
 20
12.979
 21
13.922
  0
LINE
  8
0
 10
-16.694
 11
-16.644
 20
13.922
 21
14.875
  0
LINE
  8
0
 10
-16.644
 11
-16.694
 20
14.875
 21
15.828
  0
LINE
  8
0
 10
-16.694
 11
-16.844
 20
15.828
 21
16.771
  0
LINE
  8
0
 10
-16.844
 11
-17.091
 20
16.771
 21
17.693
  0
LINE
  8
0
 10
-17.091
 11
-17.433
 20
17.693
 21
18.584
  0
LINE
  8
0
 10
-17.433
 11
-17.866
 20
18.584
 21
19.435
  0
LINE
  8
0
 10
-17.866
 11
-18.386
 20
19.435
 21
20.236
  0
LINE
  8
0
 10
-18.386
 11
-18.987
 20
20.236
 21
20.977
  0
LINE
  8
0
 10
-18.987
 11
-19.662
 20
20.977
 21
21.652
  0
LINE
  8
0
 10
-19.662
 11
-20.404
 20
21.652
 21
22.253
  0
LINE
  8
0
 10
-20.404
 11
-21.204
 20
22.253
 21
22.773
  0
LINE
  8
0
 10
-21.204
 11
-25.78
 20
22.773
 21
25.415
  0
LINE
  8
0
 10
-25.78
 11
-24.256
 20
25.415
 21
26.939
  0
LINE
  8
0
 10
-24.256
 11
-21.307
 20
26.939
 21
29.327
  0
LINE
  8
0
 10
-21.307
 11
-18.125
 20
29.327
 21
31.393
  0
LINE
  8
0
 10
-18.125
 11
-14.744
 20
31.393
 21
33.116
  0
LINE
  8
0
 10
-14.744
 11
-11.202
 20
33.116
 21
34.476
  0
LINE
  8
0
 10
-11.202
 11
-7.537
 20
34.476
 21
35.458
  0
LINE
  8
0
 10
-7.537
 11
-3.789
 20
35.458
 21
36.051
  0
LINE
  8
0
 10
-3.789
 11
0
 20
36.051
 21
36.25
  0
LINE
  8
0
 10
0
 11
3.789
 20
36.25
 21
36.051
  0
LINE
  8
0
 10
3.789
 11
7.537
 20
36.051
 21
35.458
  0
LINE
  8
0
 10
7.537
 11
11.202
 20
35.458
 21
34.476
  0
LINE
  8
0
 10
11.202
 11
14.744
 20
34.476
 21
33.116
  0
LINE
  8
0
 10
14.744
 11
18.125
 20
33.116
 21
31.393
  0
LINE
  8
0
 10
18.125
 11
21.307
 20
31.393
 21
29.327
  0
LINE
  8
0
 10
21.307
 11
24.256
 20
29.327
 21
26.939
  0
LINE
  8
0
 10
24.256
 11
25.78
 20
26.939
 21
25.415
  0
LINE
  8
0
 10
25.78
 11
21.204
 20
25.415
 21
22.773
  0
LINE
  8
0
 10
21.204
 11
20.404
 20
22.773
 21
22.253
  0
LINE
  8
0
 10
20.404
 11
19.662
 20
22.253
 21
21.652
  0
LINE
  8
0
 10
19.662
 11
18.987
 20
21.652
 21
20.977
  0
LINE
  8
0
 10
18.987
 11
18.386
 20
20.977
 21
20.236
  0
LINE
  8
0
 10
18.386
 11
17.866
 20
20.236
 21
19.435
  0
LINE
  8
0
 10
17.866
 11
17.433
 20
19.435
 21
18.584
  0
LINE
  8
0
 10
17.433
 11
17.091
 20
18.584
 21
17.693
  0
LINE
  8
0
 10
17.091
 11
16.844
 20
17.693
 21
16.771
  0
LINE
  8
0
 10
16.844
 11
16.694
 20
16.771
 21
15.828
  0
LINE
  8
0
 10
16.694
 11
16.644
 20
15.828
 21
14.875
  0
LINE
  8
0
 10
16.644
 11
16.694
 20
14.875
 21
13.922
  0
LINE
  8
0
 10
16.694
 11
16.844
 20
13.922
 21
12.979
  0
LINE
  8
0
 10
16.844
 11
17.091
 20
12.979
 21
12.057
  0
LINE
  8
0
 10
17.091
 11
17.433
 20
12.057
 21
11.166
  0
LINE
  8
0
 10
17.433
 11
17.866
 20
11.166
 21
10.315
  0
LINE
  8
0
 10
17.866
 11
18.386
 20
10.315
 21
9.514
  0
LINE
  8
0
 10
18.386
 11
18.987
 20
9.514
 21
8.773
  0
LINE
  8
0
 10
18.987
 11
19.662
 20
8.773
 21
8.098
  0
LINE
  8
0
 10
19.662
 11
20.404
 20
8.098
 21
7.497
  0
LINE
  8
0
 10
20.404
 11
21.204
 20
7.497
 21
6.977
  0
LINE
  8
0
 10
21.204
 11
22.055
 20
6.977
 21
6.543
  0
LINE
  8
0
 10
22.055
 11
22.946
 20
6.543
 21
6.201
  0
LINE
  8
0
 10
22.946
 11
23.868
 20
6.201
 21
5.954
  0
LINE
  8
0
 10
23.868
 11
24.811
 20
5.954
 21
5.805
  0
LINE
  8
0
 10
24.811
 11
25.764
 20
5.805
 21
5.755
  0
LINE
  8
0
 10
25.764
 11
26.718
 20
5.755
 21
5.805
  0
LINE
  8
0
 10
26.718
 11
27.66
 20
5.805
 21
5.954
  0
LINE
  8
0
 10
27.66
 11
28.582
 20
5.954
 21
6.201
  0
LINE
  8
0
 10
28.582
 11
29.474
 20
6.201
 21
6.543
  0
LINE
  8
0
 10
29.474
 11
30.324
 20
6.543
 21
6.977
  0
LINE
  8
0
 10
30.324
 11
34.9
 20
6.977
 21
9.619
  0
LINE
  8
0
 10
34.9
 11
35.458
 20
9.619
 21
7.537
  0
LINE
  8
0
 10
35.458
 11
36.051
 20
7.537
 21
3.789
  0
LINE
  8
0
 10
36.051
 11
36.25
 20
3.789
 21
0
  0
LINE
  8
0
 10
36.25
 11
36.051
 20
0
 21
-3.789
  0
LINE
  8
0
 10
36.051
 11
35.458
 20
-3.789
 21
-7.537
  0
LINE
  8
0
 10
35.458
 11
34.476
 20
-7.537
 21
-11.202
  0
LINE
  8
0
 10
34.476
 11
33.116
 20
-11.202
 21
-14.744
  0
LINE
  8
0
 10
33.116
 11
31.393
 20
-14.744
 21
-18.125
  0
LINE
  8
0
 10
31.393
 11
29.327
 20
-18.125
 21
-21.307
  0
LINE
  8
0
 10
29.327
 11
26.939
 20
-21.307
 21
-24.256
  0
LINE
  8
0
 10
26.939
 11
24.256
 20
-24.256
 21
-26.939
  0
LINE
  8
0
 10
24.256
 11
21.307
 20
-26.939
 21
-29.327
  0
LINE
  8
0
 10
21.307
 11
18.125
 20
-29.327
 21
-31.393
  0
LINE
  8
0
 10
18.125
 11
14.744
 20
-31.393
 21
-33.116
  0
LINE
  8
0
 10
14.744
 11
11.202
 20
-33.116
 21
-34.476
  0
LINE
  8
0
 10
11.202
 11
9.12
 20
-34.476
 21
-35.034
  0
LINE
  8
0
 10
9.12
 11
9.12
 20
-35.034
 21
-29.75
  0
LINE
  8
0
 10
9.12
 11
9.07
 20
-29.75
 21
-28.797
  0
LINE
  8
0
 10
9.07
 11
8.921
 20
-28.797
 21
-27.854
  0
LINE
  8
0
 10
8.921
 11
8.674
 20
-27.854
 21
-26.932
  0
LINE
  8
0
 10
8.674
 11
8.332
 20
-26.932
 21
-26.041
  0
LINE
  8
0
 10
8.332
 11
7.898
 20
-26.041
 21
-25.19
  0
LINE
  8
0
 10
7.898
 11
7.378
 20
-25.19
 21
-24.389
  0
LINE
  8
0
 10
7.378
 11
6.777
 20
-24.389
 21
-23.648
  0
LINE
  8
0
 10
6.777
 11
6.102
 20
-23.648
 21
-22.973
  0
LINE
  8
0
 10
6.102
 11
5.361
 20
-22.973
 21
-22.372
  0
LINE
  8
0
 10
5.361
 11
4.56
 20
-22.372
 21
-21.852
  0
LINE
  8
0
 10
4.56
 11
3.709
 20
-21.852
 21
-21.418
  0
LINE
  8
0
 10
3.709
 11
2.818
 20
-21.418
 21
-21.076
  0
LINE
  8
0
 10
2.818
 11
1.896
 20
-21.076
 21
-20.829
  0
LINE
  8
0
 10
1.896
 11
0.953
 20
-20.829
 21
-20.68
  0
LINE
  8
0
 10
0.953
 11
0
 20
-20.68
 21
-20.63
  0
LINE
  8
0
 10
0
 11
-0.953
 20
-20.63
 21
-20.68
  0
LINE
  8
0
 10
-0.953
 11
-1.896
 20
-20.68
 21
-20.829
  0
LINE
  8
0
 10
-1.896
 11
-2.818
 20
-20.829
 21
-21.076
  0
LINE
  8
0
 10
-2.818
 11
-3.709
 20
-21.076
 21
-21.418
  0
LINE
  8
0
 10
-3.709
 11
-4.56
 20
-21.418
 21
-21.852
  0
LINE
  8
0
 10
-4.56
 11
-5.361
 20
-21.852
 21
-22.372
  0
LINE
  8
0
 10
-5.361
 11
-6.102
 20
-22.372
 21
-22.973
  0
LINE
  8
0
 10
-6.102
 11
-6.777
 20
-22.973
 21
-23.648
  0
LINE
  8
0
 10
-6.777
 11
-7.378
 20
-23.648
 21
-24.389
  0
LINE
  8
0
 10
-7.378
 11
-7.898
 20
-24.389
 21
-25.19
  0
LINE
  8
0
 10
-7.898
 11
-8.332
 20
-25.19
 21
-26.041
  0
LINE
  8
0
 10
-8.332
 11
-8.674
 20
-26.041
 21
-26.932
  0
LINE
  8
0
 10
-8.674
 11
-8.921
 20
-26.932
 21
-27.854
  0
LINE
  8
0
 10
-8.921
 11
-9.07
 20
-27.854
 21
-28.797
  0
LINE
  8
0
 10
-9.07
 11
-9.12
 20
-28.797
 21
-29.75
  0
LINE
  8
0
 10
-9.12
 11
-9.12
 20
-29.75
 21
-35.034
  0
LINE
  8
0
 10
-9.12
 11
-11.202
 20
-35.034
 21
-34.476
  0
LINE
  8
0
 10
-11.202
 11
-14.744
 20
-34.476
 21
-33.116
  0
LINE
  8
0
 10
-14.744
 11
-18.125
 20
-33.116
 21
-31.393
  0
LINE
  8
0
 10
-18.125
 11
-21.307
 20
-31.393
 21
-29.327
  0
LINE
  8
0
 10
-21.307
 11
-24.256
 20
-29.327
 21
-26.939
  0
LINE
  8
0
 10
-24.256
 11
-26.939
 20
-26.939
 21
-24.256
  0
LINE
  8
0
 10
-26.939
 11
-29.327
 20
-24.256
 21
-21.307
  0
LINE
  8
0
 10
-29.327
 11
-31.393
 20
-21.307
 21
-18.125
  0
LINE
  8
0
 10
-31.393
 11
-33.116
 20
-18.125
 21
-14.744
  0
LINE
  8
0
 10
-33.116
 11
-34.476
 20
-14.744
 21
-11.202
  0
LINE
  8
0
 10
-34.476
 11
-35.458
 20
-11.202
 21
-7.537
  0
LINE
  8
0
 10
-35.458
 11
-36.051
 20
-7.537
 21
-3.789
  0
LINE
  8
0
 10
-36.051
 11
-36.25
 20
-3.789
 21
0
  0
LINE
  8
0
 10
-21.35
 11
-21.292
 20
-6.163
 21
-5.047
  0
LINE
  8
0
 10
-21.292
 11
-21.117
 20
-5.047
 21
-3.944
  0
LINE
  8
0
 10
-21.117
 11
-20.828
 20
-3.944
 21
-2.864
  0
LINE
  8
0
 10
-20.828
 11
-20.427
 20
-2.864
 21
-1.821
  0
LINE
  8
0
 10
-20.427
 11
-19.92
 20
-1.821
 21
-0.826
  0
LINE
  8
0
 10
-19.92
 11
-19.311
 20
-0.826
 21
0.111
  0
LINE
  8
0
 10
-19.311
 11
-18.608
 20
0.111
 21
0.98
  0
LINE
  8
0
 10
-18.608
 11
-17.818
 20
0.98
 21
1.77
  0
LINE
  8
0
 10
-17.818
 11
-16.95
 20
1.77
 21
2.473
  0
LINE
  8
0
 10
-16.95
 11
-16.012
 20
2.473
 21
3.082
  0
LINE
  8
0
 10
-16.012
 11
-15.017
 20
3.082
 21
3.589
  0
LINE
  8
0
 10
-15.017
 11
-13.974
 20
3.589
 21
3.989
  0
LINE
  8
0
 10
-13.974
 11
-12.894
 20
3.989
 21
4.279
  0
LINE
  8
0
 10
-12.894
 11
-11.791
 20
4.279
 21
4.453
  0
LINE
  8
0
 10
-11.791
 11
-10.675
 20
4.453
 21
4.512
  0
LINE
  8
0
 10
-10.675
 11
-9.559
 20
4.512
 21
4.453
  0
LINE
  8
0
 10
-9.559
 11
-8.456
 20
4.453
 21
4.279
  0
LINE
  8
0
 10
-8.456
 11
-7.376
 20
4.279
 21
3.989
  0
LINE
  8
0
 10
-7.376
 11
-6.333
 20
3.989
 21
3.589
  0
LINE
  8
0
 10
-6.333
 11
-6.186
 20
3.589
 21
3.514
  0
LINE
  8
0
 10
-6.186
 11
-6.163
 20
3.514
 21
3.558
  0
LINE
  8
0
 10
-6.163
 11
-6.136
 20
3.558
 21
3.6
  0
LINE
  8
0
 10
-6.136
 11
-6.275
 20
3.6
 21
3.69
  0
LINE
  8
0
 10
-6.275
 11
-7.143
 20
3.69
 21
4.393
  0
LINE
  8
0
 10
-7.143
 11
-7.933
 20
4.393
 21
5.183
  0
LINE
  8
0
 10
-7.933
 11
-8.636
 20
5.183
 21
6.052
  0
LINE
  8
0
 10
-8.636
 11
-9.245
 20
6.052
 21
6.989
  0
LINE
  8
0
 10
-9.245
 11
-9.752
 20
6.989
 21
7.985
  0
LINE
  8
0
 10
-9.752
 11
-10.153
 20
7.985
 21
9.028
  0
LINE
  8
0
 10
-10.153
 11
-10.442
 20
9.028
 21
10.107
  0
LINE
  8
0
 10
-10.442
 11
-10.617
 20
10.107
 21
11.211
  0
LINE
  8
0
 10
-10.617
 11
-10.675
 20
11.211
 21
12.326
  0
LINE
  8
0
 10
-10.675
 11
-10.617
 20
12.326
 21
13.442
  0
LINE
  8
0
 10
-10.617
 11
-10.442
 20
13.442
 21
14.546
  0
LINE
  8
0
 10
-10.442
 11
-10.153
 20
14.546
 21
15.625
  0
LINE
  8
0
 10
-10.153
 11
-9.752
 20
15.625
 21
16.668
  0
LINE
  8
0
 10
-9.752
 11
-9.245
 20
16.668
 21
17.664
  0
LINE
  8
0
 10
-9.245
 11
-8.636
 20
17.664
 21
18.601
  0
LINE
  8
0
 10
-8.636
 11
-7.933
 20
18.601
 21
19.469
  0
LINE
  8
0
 10
-7.933
 11
-7.143
 20
19.469
 21
20.259
  0
LINE
  8
0
 10
-7.143
 11
-6.275
 20
20.259
 21
20.963
  0
LINE
  8
0
 10
-6.275
 11
-5.337
 20
20.963
 21
21.571
  0
LINE
  8
0
 10
-5.337
 11
-4.342
 20
21.571
 21
22.079
  0
LINE
  8
0
 10
-4.342
 11
-3.299
 20
22.079
 21
22.479
  0
LINE
  8
0
 10
-3.299
 11
-2.219
 20
22.479
 21
22.768
  0
LINE
  8
0
 10
-2.219
 11
-1.116
 20
22.768
 21
22.943
  0
LINE
  8
0
 10
-1.116
 11
0
 20
22.943
 21
23.001
  0
LINE
  8
0
 10
0
 11
1.116
 20
23.001
 21
22.943
  0
LINE
  8
0
 10
1.116
 11
2.219
 20
22.943
 21
22.768
  0
LINE
  8
0
 10
2.219
 11
3.299
 20
22.768
 21
22.479
  0
LINE
  8
0
 10
3.299
 11
4.342
 20
22.479
 21
22.079
  0
LINE
  8
0
 10
4.342
 11
5.337
 20
22.079
 21
21.571
  0
LINE
  8
0
 10
5.337
 11
6.275
 20
21.571
 21
20.963
  0
LINE
  8
0
 10
6.275
 11
7.143
 20
20.963
 21
20.259
  0
LINE
  8
0
 10
7.143
 11
7.933
 20
20.259
 21
19.469
  0
LINE
  8
0
 10
7.933
 11
8.636
 20
19.469
 21
18.601
  0
LINE
  8
0
 10
8.636
 11
9.245
 20
18.601
 21
17.664
  0
LINE
  8
0
 10
9.245
 11
9.752
 20
17.664
 21
16.668
  0
LINE
  8
0
 10
9.752
 11
10.153
 20
16.668
 21
15.625
  0
LINE
  8
0
 10
10.153
 11
10.442
 20
15.625
 21
14.546
  0
LINE
  8
0
 10
10.442
 11
10.617
 20
14.546
 21
13.442
  0
LINE
  8
0
 10
10.617
 11
10.675
 20
13.442
 21
12.326
  0
LINE
  8
0
 10
10.675
 11
10.617
 20
12.326
 21
11.211
  0
LINE
  8
0
 10
10.617
 11
10.442
 20
11.211
 21
10.107
  0
LINE
  8
0
 10
10.442
 11
10.153
 20
10.107
 21
9.028
  0
LINE
  8
0
 10
10.153
 11
9.752
 20
9.028
 21
7.985
  0
LINE
  8
0
 10
9.752
 11
9.245
 20
7.985
 21
6.989
  0
LINE
  8
0
 10
9.245
 11
8.636
 20
6.989
 21
6.052
  0
LINE
  8
0
 10
8.636
 11
7.933
 20
6.052
 21
5.183
  0
LINE
  8
0
 10
7.933
 11
7.143
 20
5.183
 21
4.393
  0
LINE
  8
0
 10
7.143
 11
6.275
 20
4.393
 21
3.69
  0
LINE
  8
0
 10
6.275
 11
6.136
 20
3.69
 21
3.6
  0
LINE
  8
0
 10
6.136
 11
6.163
 20
3.6
 21
3.558
  0
LINE
  8
0
 10
6.163
 11
6.186
 20
3.558
 21
3.514
  0
LINE
  8
0
 10
6.186
 11
6.333
 20
3.514
 21
3.589
  0
LINE
  8
0
 10
6.333
 11
7.376
 20
3.589
 21
3.989
  0
LINE
  8
0
 10
7.376
 11
8.456
 20
3.989
 21
4.279
  0
LINE
  8
0
 10
8.456
 11
9.559
 20
4.279
 21
4.453
  0
LINE
  8
0
 10
9.559
 11
10.675
 20
4.453
 21
4.512
  0
LINE
  8
0
 10
10.675
 11
11.791
 20
4.512
 21
4.453
  0
LINE
  8
0
 10
11.791
 11
12.894
 20
4.453
 21
4.279
  0
LINE
  8
0
 10
12.894
 11
13.974
 20
4.279
 21
3.989
  0
LINE
  8
0
 10
13.974
 11
15.017
 20
3.989
 21
3.589
  0
LINE
  8
0
 10
15.017
 11
16.012
 20
3.589
 21
3.082
  0
LINE
  8
0
 10
16.012
 11
16.95
 20
3.082
 21
2.473
  0
LINE
  8
0
 10
16.95
 11
17.818
 20
2.473
 21
1.77
  0
LINE
  8
0
 10
17.818
 11
18.608
 20
1.77
 21
0.98
  0
LINE
  8
0
 10
18.608
 11
19.311
 20
0.98
 21
0.111
  0
LINE
  8
0
 10
19.311
 11
19.92
 20
0.111
 21
-0.826
  0
LINE
  8
0
 10
19.92
 11
20.427
 20
-0.826
 21
-1.821
  0
LINE
  8
0
 10
20.427
 11
20.828
 20
-1.821
 21
-2.864
  0
LINE
  8
0
 10
20.828
 11
21.117
 20
-2.864
 21
-3.944
  0
LINE
  8
0
 10
21.117
 11
21.292
 20
-3.944
 21
-5.047
  0
LINE
  8
0
 10
21.292
 11
21.35
 20
-5.047
 21
-6.163
  0
LINE
  8
0
 10
21.35
 11
21.292
 20
-6.163
 21
-7.279
  0
LINE
  8
0
 10
21.292
 11
21.117
 20
-7.279
 21
-8.383
  0
LINE
  8
0
 10
21.117
 11
20.828
 20
-8.383
 21
-9.462
  0
LINE
  8
0
 10
20.828
 11
20.427
 20
-9.462
 21
-10.505
  0
LINE
  8
0
 10
20.427
 11
19.92
 20
-10.505
 21
-11.501
  0
LINE
  8
0
 10
19.92
 11
19.311
 20
-11.501
 21
-12.438
  0
LINE
  8
0
 10
19.311
 11
18.608
 20
-12.438
 21
-13.306
  0
LINE
  8
0
 10
18.608
 11
17.818
 20
-13.306
 21
-14.096
  0
LINE
  8
0
 10
17.818
 11
16.95
 20
-14.096
 21
-14.799
  0
LINE
  8
0
 10
16.95
 11
16.012
 20
-14.799
 21
-15.408
  0
LINE
  8
0
 10
16.012
 11
15.017
 20
-15.408
 21
-15.915
  0
LINE
  8
0
 10
15.017
 11
13.974
 20
-15.915
 21
-16.316
  0
LINE
  8
0
 10
13.974
 11
12.894
 20
-16.316
 21
-16.605
  0
LINE
  8
0
 10
12.894
 11
11.791
 20
-16.605
 21
-16.78
  0
LINE
  8
0
 10
11.791
 11
10.675
 20
-16.78
 21
-16.838
  0
LINE
  8
0
 10
10.675
 11
9.559
 20
-16.838
 21
-16.78
  0
LINE
  8
0
 10
9.559
 11
8.456
 20
-16.78
 21
-16.605
  0
LINE
  8
0
 10
8.456
 11
7.376
 20
-16.605
 21
-16.316
  0
LINE
  8
0
 10
7.376
 11
6.333
 20
-16.316
 21
-15.915
  0
LINE
  8
0
 10
6.333
 11
5.337
 20
-15.915
 21
-15.408
  0
LINE
  8
0
 10
5.337
 11
4.4
 20
-15.408
 21
-14.799
  0
LINE
  8
0
 10
4.4
 11
3.532
 20
-14.799
 21
-14.096
  0
LINE
  8
0
 10
3.532
 11
2.742
 20
-14.096
 21
-13.306
  0
LINE
  8
0
 10
2.742
 11
2.039
 20
-13.306
 21
-12.438
  0
LINE
  8
0
 10
2.039
 11
1.43
 20
-12.438
 21
-11.501
  0
LINE
  8
0
 10
1.43
 11
0.923
 20
-11.501
 21
-10.505
  0
LINE
  8
0
 10
0.923
 11
0.522
 20
-10.505
 21
-9.462
  0
LINE
  8
0
 10
0.522
 11
0.233
 20
-9.462
 21
-8.383
  0
LINE
  8
0
 10
0.233
 11
0.058
 20
-8.383
 21
-7.279
  0
LINE
  8
0
 10
0.058
 11
0.05
 20
-7.279
 21
-7.114
  0
LINE
  8
0
 10
0.05
 11
0
 20
-7.114
 21
-7.117
  0
LINE
  8
0
 10
0
 11
-0.05
 20
-7.117
 21
-7.114
  0
LINE
  8
0
 10
-0.05
 11
-0.058
 20
-7.114
 21
-7.279
  0
LINE
  8
0
 10
-0.058
 11
-0.233
 20
-7.279
 21
-8.383
  0
LINE
  8
0
 10
-0.233
 11
-0.522
 20
-8.383
 21
-9.462
  0
LINE
  8
0
 10
-0.522
 11
-0.923
 20
-9.462
 21
-10.505
  0
LINE
  8
0
 10
-0.923
 11
-1.43
 20
-10.505
 21
-11.501
  0
LINE
  8
0
 10
-1.43
 11
-2.039
 20
-11.501
 21
-12.438
  0
LINE
  8
0
 10
-2.039
 11
-2.742
 20
-12.438
 21
-13.306
  0
LINE
  8
0
 10
-2.742
 11
-3.532
 20
-13.306
 21
-14.096
  0
LINE
  8
0
 10
-3.532
 11
-4.4
 20
-14.096
 21
-14.799
  0
LINE
  8
0
 10
-4.4
 11
-5.337
 20
-14.799
 21
-15.408
  0
LINE
  8
0
 10
-5.337
 11
-6.333
 20
-15.408
 21
-15.915
  0
LINE
  8
0
 10
-6.333
 11
-7.376
 20
-15.915
 21
-16.316
  0
LINE
  8
0
 10
-7.376
 11
-8.456
 20
-16.316
 21
-16.605
  0
LINE
  8
0
 10
-8.456
 11
-9.559
 20
-16.605
 21
-16.78
  0
LINE
  8
0
 10
-9.559
 11
-10.675
 20
-16.78
 21
-16.838
  0
LINE
  8
0
 10
-10.675
 11
-11.791
 20
-16.838
 21
-16.78
  0
LINE
  8
0
 10
-11.791
 11
-12.894
 20
-16.78
 21
-16.605
  0
LINE
  8
0
 10
-12.894
 11
-13.974
 20
-16.605
 21
-16.316
  0
LINE
  8
0
 10
-13.974
 11
-15.017
 20
-16.316
 21
-15.915
  0
LINE
  8
0
 10
-15.017
 11
-16.012
 20
-15.915
 21
-15.408
  0
LINE
  8
0
 10
-16.012
 11
-16.95
 20
-15.408
 21
-14.799
  0
LINE
  8
0
 10
-16.95
 11
-17.818
 20
-14.799
 21
-14.096
  0
LINE
  8
0
 10
-17.818
 11
-18.608
 20
-14.096
 21
-13.306
  0
LINE
  8
0
 10
-18.608
 11
-19.311
 20
-13.306
 21
-12.438
  0
LINE
  8
0
 10
-19.311
 11
-19.92
 20
-12.438
 21
-11.501
  0
LINE
  8
0
 10
-19.92
 11
-20.427
 20
-11.501
 21
-10.505
  0
LINE
  8
0
 10
-20.427
 11
-20.828
 20
-10.505
 21
-9.462
  0
LINE
  8
0
 10
-20.828
 11
-21.117
 20
-9.462
 21
-8.383
  0
LINE
  8
0
 10
-21.117
 11
-21.292
 20
-8.383
 21
-7.279
  0
LINE
  8
0
 10
-21.292
 11
-21.35
 20
-7.279
 21
-6.163
  0
ENDSEC
  0
SECTION
  2
OBJECTS
  0
DICTIONARY
  0
ENDSEC
  0
EOF
