  0
SECTION
  2
BLOCKS
  0
ENDSEC
  0
SECTION
  2
ENTITIES
  0
LINE
  8
0
 10
-21.35
 11
-21.292
 20
-6.163
 21
-5.047
  0
LINE
  8
0
 10
-21.292
 11
-21.117
 20
-5.047
 21
-3.944
  0
LINE
  8
0
 10
-21.117
 11
-20.828
 20
-3.944
 21
-2.864
  0
LINE
  8
0
 10
-20.828
 11
-20.427
 20
-2.864
 21
-1.821
  0
LINE
  8
0
 10
-20.427
 11
-19.92
 20
-1.821
 21
-0.826
  0
LINE
  8
0
 10
-19.92
 11
-19.311
 20
-0.826
 21
0.111
  0
LINE
  8
0
 10
-19.311
 11
-18.608
 20
0.111
 21
0.98
  0
LINE
  8
0
 10
-18.608
 11
-17.818
 20
0.98
 21
1.77
  0
LINE
  8
0
 10
-17.818
 11
-16.95
 20
1.77
 21
2.473
  0
LINE
  8
0
 10
-16.95
 11
-16.012
 20
2.473
 21
3.082
  0
LINE
  8
0
 10
-16.012
 11
-15.017
 20
3.082
 21
3.589
  0
LINE
  8
0
 10
-15.017
 11
-13.974
 20
3.589
 21
3.989
  0
LINE
  8
0
 10
-13.974
 11
-12.894
 20
3.989
 21
4.279
  0
LINE
  8
0
 10
-12.894
 11
-11.791
 20
4.279
 21
4.453
  0
LINE
  8
0
 10
-11.791
 11
-10.675
 20
4.453
 21
4.512
  0
LINE
  8
0
 10
-10.675
 11
-9.559
 20
4.512
 21
4.453
  0
LINE
  8
0
 10
-9.559
 11
-8.456
 20
4.453
 21
4.279
  0
LINE
  8
0
 10
-8.456
 11
-7.376
 20
4.279
 21
3.989
  0
LINE
  8
0
 10
-7.376
 11
-6.333
 20
3.989
 21
3.589
  0
LINE
  8
0
 10
-6.333
 11
-6.186
 20
3.589
 21
3.514
  0
LINE
  8
0
 10
-6.186
 11
-6.163
 20
3.514
 21
3.558
  0
LINE
  8
0
 10
-6.163
 11
-6.136
 20
3.558
 21
3.6
  0
LINE
  8
0
 10
-6.136
 11
-6.275
 20
3.6
 21
3.69
  0
LINE
  8
0
 10
-6.275
 11
-7.143
 20
3.69
 21
4.393
  0
LINE
  8
0
 10
-7.143
 11
-7.933
 20
4.393
 21
5.183
  0
LINE
  8
0
 10
-7.933
 11
-8.636
 20
5.183
 21
6.052
  0
LINE
  8
0
 10
-8.636
 11
-9.245
 20
6.052
 21
6.989
  0
LINE
  8
0
 10
-9.245
 11
-9.752
 20
6.989
 21
7.985
  0
LINE
  8
0
 10
-9.752
 11
-10.153
 20
7.985
 21
9.028
  0
LINE
  8
0
 10
-10.153
 11
-10.442
 20
9.028
 21
10.107
  0
LINE
  8
0
 10
-10.442
 11
-10.617
 20
10.107
 21
11.211
  0
LINE
  8
0
 10
-10.617
 11
-10.675
 20
11.211
 21
12.326
  0
LINE
  8
0
 10
-10.675
 11
-10.617
 20
12.326
 21
13.442
  0
LINE
  8
0
 10
-10.617
 11
-10.442
 20
13.442
 21
14.546
  0
LINE
  8
0
 10
-10.442
 11
-10.153
 20
14.546
 21
15.625
  0
LINE
  8
0
 10
-10.153
 11
-9.752
 20
15.625
 21
16.668
  0
LINE
  8
0
 10
-9.752
 11
-9.245
 20
16.668
 21
17.664
  0
LINE
  8
0
 10
-9.245
 11
-8.636
 20
17.664
 21
18.601
  0
LINE
  8
0
 10
-8.636
 11
-7.933
 20
18.601
 21
19.469
  0
LINE
  8
0
 10
-7.933
 11
-7.143
 20
19.469
 21
20.259
  0
LINE
  8
0
 10
-7.143
 11
-6.275
 20
20.259
 21
20.963
  0
LINE
  8
0
 10
-6.275
 11
-5.337
 20
20.963
 21
21.571
  0
LINE
  8
0
 10
-5.337
 11
-4.342
 20
21.571
 21
22.079
  0
LINE
  8
0
 10
-4.342
 11
-3.299
 20
22.079
 21
22.479
  0
LINE
  8
0
 10
-3.299
 11
-2.219
 20
22.479
 21
22.768
  0
LINE
  8
0
 10
-2.219
 11
-1.116
 20
22.768
 21
22.943
  0
LINE
  8
0
 10
-1.116
 11
0
 20
22.943
 21
23.001
  0
LINE
  8
0
 10
0
 11
1.116
 20
23.001
 21
22.943
  0
LINE
  8
0
 10
1.116
 11
2.219
 20
22.943
 21
22.768
  0
LINE
  8
0
 10
2.219
 11
3.299
 20
22.768
 21
22.479
  0
LINE
  8
0
 10
3.299
 11
4.342
 20
22.479
 21
22.079
  0
LINE
  8
0
 10
4.342
 11
5.337
 20
22.079
 21
21.571
  0
LINE
  8
0
 10
5.337
 11
6.275
 20
21.571
 21
20.963
  0
LINE
  8
0
 10
6.275
 11
7.143
 20
20.963
 21
20.259
  0
LINE
  8
0
 10
7.143
 11
7.933
 20
20.259
 21
19.469
  0
LINE
  8
0
 10
7.933
 11
8.636
 20
19.469
 21
18.601
  0
LINE
  8
0
 10
8.636
 11
9.245
 20
18.601
 21
17.664
  0
LINE
  8
0
 10
9.245
 11
9.752
 20
17.664
 21
16.668
  0
LINE
  8
0
 10
9.752
 11
10.153
 20
16.668
 21
15.625
  0
LINE
  8
0
 10
10.153
 11
10.442
 20
15.625
 21
14.546
  0
LINE
  8
0
 10
10.442
 11
10.617
 20
14.546
 21
13.442
  0
LINE
  8
0
 10
10.617
 11
10.675
 20
13.442
 21
12.326
  0
LINE
  8
0
 10
10.675
 11
10.617
 20
12.326
 21
11.211
  0
LINE
  8
0
 10
10.617
 11
10.442
 20
11.211
 21
10.107
  0
LINE
  8
0
 10
10.442
 11
10.153
 20
10.107
 21
9.028
  0
LINE
  8
0
 10
10.153
 11
9.752
 20
9.028
 21
7.985
  0
LINE
  8
0
 10
9.752
 11
9.245
 20
7.985
 21
6.989
  0
LINE
  8
0
 10
9.245
 11
8.636
 20
6.989
 21
6.052
  0
LINE
  8
0
 10
8.636
 11
7.933
 20
6.052
 21
5.183
  0
LINE
  8
0
 10
7.933
 11
7.143
 20
5.183
 21
4.393
  0
LINE
  8
0
 10
7.143
 11
6.275
 20
4.393
 21
3.69
  0
LINE
  8
0
 10
6.275
 11
6.136
 20
3.69
 21
3.6
  0
LINE
  8
0
 10
6.136
 11
6.163
 20
3.6
 21
3.558
  0
LINE
  8
0
 10
6.163
 11
6.186
 20
3.558
 21
3.514
  0
LINE
  8
0
 10
6.186
 11
6.333
 20
3.514
 21
3.589
  0
LINE
  8
0
 10
6.333
 11
7.376
 20
3.589
 21
3.989
  0
LINE
  8
0
 10
7.376
 11
8.456
 20
3.989
 21
4.279
  0
LINE
  8
0
 10
8.456
 11
9.559
 20
4.279
 21
4.453
  0
LINE
  8
0
 10
9.559
 11
10.675
 20
4.453
 21
4.512
  0
LINE
  8
0
 10
10.675
 11
11.791
 20
4.512
 21
4.453
  0
LINE
  8
0
 10
11.791
 11
12.894
 20
4.453
 21
4.279
  0
LINE
  8
0
 10
12.894
 11
13.974
 20
4.279
 21
3.989
  0
LINE
  8
0
 10
13.974
 11
15.017
 20
3.989
 21
3.589
  0
LINE
  8
0
 10
15.017
 11
16.012
 20
3.589
 21
3.082
  0
LINE
  8
0
 10
16.012
 11
16.95
 20
3.082
 21
2.473
  0
LINE
  8
0
 10
16.95
 11
17.818
 20
2.473
 21
1.77
  0
LINE
  8
0
 10
17.818
 11
18.608
 20
1.77
 21
0.98
  0
LINE
  8
0
 10
18.608
 11
19.311
 20
0.98
 21
0.111
  0
LINE
  8
0
 10
19.311
 11
19.92
 20
0.111
 21
-0.826
  0
LINE
  8
0
 10
19.92
 11
20.427
 20
-0.826
 21
-1.821
  0
LINE
  8
0
 10
20.427
 11
20.828
 20
-1.821
 21
-2.864
  0
LINE
  8
0
 10
20.828
 11
21.117
 20
-2.864
 21
-3.944
  0
LINE
  8
0
 10
21.117
 11
21.292
 20
-3.944
 21
-5.047
  0
LINE
  8
0
 10
21.292
 11
21.35
 20
-5.047
 21
-6.163
  0
LINE
  8
0
 10
21.35
 11
21.292
 20
-6.163
 21
-7.279
  0
LINE
  8
0
 10
21.292
 11
21.117
 20
-7.279
 21
-8.383
  0
LINE
  8
0
 10
21.117
 11
20.828
 20
-8.383
 21
-9.462
  0
LINE
  8
0
 10
20.828
 11
20.427
 20
-9.462
 21
-10.505
  0
LINE
  8
0
 10
20.427
 11
19.92
 20
-10.505
 21
-11.501
  0
LINE
  8
0
 10
19.92
 11
19.311
 20
-11.501
 21
-12.438
  0
LINE
  8
0
 10
19.311
 11
18.608
 20
-12.438
 21
-13.306
  0
LINE
  8
0
 10
18.608
 11
17.818
 20
-13.306
 21
-14.096
  0
LINE
  8
0
 10
17.818
 11
16.95
 20
-14.096
 21
-14.799
  0
LINE
  8
0
 10
16.95
 11
16.012
 20
-14.799
 21
-15.408
  0
LINE
  8
0
 10
16.012
 11
15.017
 20
-15.408
 21
-15.915
  0
LINE
  8
0
 10
15.017
 11
13.974
 20
-15.915
 21
-16.316
  0
LINE
  8
0
 10
13.974
 11
12.894
 20
-16.316
 21
-16.605
  0
LINE
  8
0
 10
12.894
 11
11.791
 20
-16.605
 21
-16.78
  0
LINE
  8
0
 10
11.791
 11
10.675
 20
-16.78
 21
-16.838
  0
LINE
  8
0
 10
10.675
 11
9.559
 20
-16.838
 21
-16.78
  0
LINE
  8
0
 10
9.559
 11
8.456
 20
-16.78
 21
-16.605
  0
LINE
  8
0
 10
8.456
 11
7.376
 20
-16.605
 21
-16.316
  0
LINE
  8
0
 10
7.376
 11
6.333
 20
-16.316
 21
-15.915
  0
LINE
  8
0
 10
6.333
 11
5.337
 20
-15.915
 21
-15.408
  0
LINE
  8
0
 10
5.337
 11
4.4
 20
-15.408
 21
-14.799
  0
LINE
  8
0
 10
4.4
 11
3.532
 20
-14.799
 21
-14.096
  0
LINE
  8
0
 10
3.532
 11
2.742
 20
-14.096
 21
-13.306
  0
LINE
  8
0
 10
2.742
 11
2.039
 20
-13.306
 21
-12.438
  0
LINE
  8
0
 10
2.039
 11
1.43
 20
-12.438
 21
-11.501
  0
LINE
  8
0
 10
1.43
 11
0.923
 20
-11.501
 21
-10.505
  0
LINE
  8
0
 10
0.923
 11
0.522
 20
-10.505
 21
-9.462
  0
LINE
  8
0
 10
0.522
 11
0.233
 20
-9.462
 21
-8.383
  0
LINE
  8
0
 10
0.233
 11
0.058
 20
-8.383
 21
-7.279
  0
LINE
  8
0
 10
0.058
 11
0.05
 20
-7.279
 21
-7.114
  0
LINE
  8
0
 10
0.05
 11
0
 20
-7.114
 21
-7.117
  0
LINE
  8
0
 10
0
 11
-0.05
 20
-7.117
 21
-7.114
  0
LINE
  8
0
 10
-0.05
 11
-0.058
 20
-7.114
 21
-7.279
  0
LINE
  8
0
 10
-0.058
 11
-0.233
 20
-7.279
 21
-8.383
  0
LINE
  8
0
 10
-0.233
 11
-0.522
 20
-8.383
 21
-9.462
  0
LINE
  8
0
 10
-0.522
 11
-0.923
 20
-9.462
 21
-10.505
  0
LINE
  8
0
 10
-0.923
 11
-1.43
 20
-10.505
 21
-11.501
  0
LINE
  8
0
 10
-1.43
 11
-2.039
 20
-11.501
 21
-12.438
  0
LINE
  8
0
 10
-2.039
 11
-2.742
 20
-12.438
 21
-13.306
  0
LINE
  8
0
 10
-2.742
 11
-3.532
 20
-13.306
 21
-14.096
  0
LINE
  8
0
 10
-3.532
 11
-4.4
 20
-14.096
 21
-14.799
  0
LINE
  8
0
 10
-4.4
 11
-5.337
 20
-14.799
 21
-15.408
  0
LINE
  8
0
 10
-5.337
 11
-6.333
 20
-15.408
 21
-15.915
  0
LINE
  8
0
 10
-6.333
 11
-7.376
 20
-15.915
 21
-16.316
  0
LINE
  8
0
 10
-7.376
 11
-8.456
 20
-16.316
 21
-16.605
  0
LINE
  8
0
 10
-8.456
 11
-9.559
 20
-16.605
 21
-16.78
  0
LINE
  8
0
 10
-9.559
 11
-10.675
 20
-16.78
 21
-16.838
  0
LINE
  8
0
 10
-10.675
 11
-11.791
 20
-16.838
 21
-16.78
  0
LINE
  8
0
 10
-11.791
 11
-12.894
 20
-16.78
 21
-16.605
  0
LINE
  8
0
 10
-12.894
 11
-13.974
 20
-16.605
 21
-16.316
  0
LINE
  8
0
 10
-13.974
 11
-15.017
 20
-16.316
 21
-15.915
  0
LINE
  8
0
 10
-15.017
 11
-16.012
 20
-15.915
 21
-15.408
  0
LINE
  8
0
 10
-16.012
 11
-16.95
 20
-15.408
 21
-14.799
  0
LINE
  8
0
 10
-16.95
 11
-17.818
 20
-14.799
 21
-14.096
  0
LINE
  8
0
 10
-17.818
 11
-18.608
 20
-14.096
 21
-13.306
  0
LINE
  8
0
 10
-18.608
 11
-19.311
 20
-13.306
 21
-12.438
  0
LINE
  8
0
 10
-19.311
 11
-19.92
 20
-12.438
 21
-11.501
  0
LINE
  8
0
 10
-19.92
 11
-20.427
 20
-11.501
 21
-10.505
  0
LINE
  8
0
 10
-20.427
 11
-20.828
 20
-10.505
 21
-9.462
  0
LINE
  8
0
 10
-20.828
 11
-21.117
 20
-9.462
 21
-8.383
  0
LINE
  8
0
 10
-21.117
 11
-21.292
 20
-8.383
 21
-7.279
  0
LINE
  8
0
 10
-21.292
 11
-21.35
 20
-7.279
 21
-6.163
  0
LINE
  8
0
 10
-31.75
 11
-31.576
 20
0
 21
3.319
  0
LINE
  8
0
 10
-31.576
 11
-31.056
 20
3.319
 21
6.601
  0
LINE
  8
0
 10
-31.056
 11
-30.926
 20
6.601
 21
7.088
  0
LINE
  8
0
 10
-30.926
 11
-30.75
 20
7.088
 21
7.079
  0
LINE
  8
0
 10
-30.75
 11
-29.634
 20
7.079
 21
7.137
  0
LINE
  8
0
 10
-29.634
 11
-28.531
 20
7.137
 21
7.312
  0
LINE
  8
0
 10
-28.531
 11
-27.451
 20
7.312
 21
7.601
  0
LINE
  8
0
 10
-27.451
 11
-26.408
 20
7.601
 21
8.001
  0
LINE
  8
0
 10
-26.408
 11
-25.412
 20
8.001
 21
8.509
  0
LINE
  8
0
 10
-25.412
 11
-24.475
 20
8.509
 21
9.117
  0
LINE
  8
0
 10
-24.475
 11
-23.607
 20
9.117
 21
9.82
  0
LINE
  8
0
 10
-23.607
 11
-22.817
 20
9.82
 21
10.611
  0
LINE
  8
0
 10
-22.817
 11
-22.114
 20
10.611
 21
11.479
  0
LINE
  8
0
 10
-22.114
 11
-21.505
 20
11.479
 21
12.416
  0
LINE
  8
0
 10
-21.505
 11
-20.998
 20
12.416
 21
13.412
  0
LINE
  8
0
 10
-20.998
 11
-20.597
 20
13.412
 21
14.455
  0
LINE
  8
0
 10
-20.597
 11
-20.308
 20
14.455
 21
15.534
  0
LINE
  8
0
 10
-20.308
 11
-20.133
 20
15.534
 21
16.638
  0
LINE
  8
0
 10
-20.133
 11
-20.075
 20
16.638
 21
17.754
  0
LINE
  8
0
 10
-20.075
 11
-20.133
 20
17.754
 21
18.869
  0
LINE
  8
0
 10
-20.133
 11
-20.308
 20
18.869
 21
19.973
  0
LINE
  8
0
 10
-20.308
 11
-20.597
 20
19.973
 21
21.052
  0
LINE
  8
0
 10
-20.597
 11
-20.998
 20
21.052
 21
22.095
  0
LINE
  8
0
 10
-20.998
 11
-21.505
 20
22.095
 21
23.091
  0
LINE
  8
0
 10
-21.505
 11
-21.601
 20
23.091
 21
23.239
  0
LINE
  8
0
 10
-21.601
 11
-21.245
 20
23.239
 21
23.595
  0
LINE
  8
0
 10
-21.245
 11
-18.662
 20
23.595
 21
25.686
  0
LINE
  8
0
 10
-18.662
 11
-15.875
 20
25.686
 21
27.496
  0
LINE
  8
0
 10
-15.875
 11
-12.914
 20
27.496
 21
29.005
  0
LINE
  8
0
 10
-12.914
 11
-9.811
 20
29.005
 21
30.196
  0
LINE
  8
0
 10
-9.811
 11
-6.601
 20
30.196
 21
31.056
  0
LINE
  8
0
 10
-6.601
 11
-3.319
 20
31.056
 21
31.576
  0
LINE
  8
0
 10
-3.319
 11
0
 20
31.576
 21
31.75
  0
LINE
  8
0
 10
0
 11
3.319
 20
31.75
 21
31.576
  0
LINE
  8
0
 10
3.319
 11
6.601
 20
31.576
 21
31.056
  0
LINE
  8
0
 10
6.601
 11
9.811
 20
31.056
 21
30.196
  0
LINE
  8
0
 10
9.811
 11
12.914
 20
30.196
 21
29.005
  0
LINE
  8
0
 10
12.914
 11
15.875
 20
29.005
 21
27.496
  0
LINE
  8
0
 10
15.875
 11
18.662
 20
27.496
 21
25.686
  0
LINE
  8
0
 10
18.662
 11
21.245
 20
25.686
 21
23.595
  0
LINE
  8
0
 10
21.245
 11
21.626
 20
23.595
 21
23.213
  0
LINE
  8
0
 10
21.626
 11
21.498
 20
23.213
 21
22.961
  0
LINE
  8
0
 10
21.498
 11
21.097
 20
22.961
 21
21.918
  0
LINE
  8
0
 10
21.097
 11
20.808
 20
21.918
 21
20.839
  0
LINE
  8
0
 10
20.808
 11
20.633
 20
20.839
 21
19.735
  0
LINE
  8
0
 10
20.633
 11
20.575
 20
19.735
 21
18.62
  0
LINE
  8
0
 10
20.575
 11
20.633
 20
18.62
 21
17.504
  0
LINE
  8
0
 10
20.633
 11
20.808
 20
17.504
 21
16.4
  0
LINE
  8
0
 10
20.808
 11
21.097
 20
16.4
 21
15.321
  0
LINE
  8
0
 10
21.097
 11
21.498
 20
15.321
 21
14.278
  0
LINE
  8
0
 10
21.498
 11
22.005
 20
14.278
 21
13.282
  0
LINE
  8
0
 10
22.005
 11
22.614
 20
13.282
 21
12.345
  0
LINE
  8
0
 10
22.614
 11
23.317
 20
12.345
 21
11.477
  0
LINE
  8
0
 10
23.317
 11
24.107
 20
11.477
 21
10.686
  0
LINE
  8
0
 10
24.107
 11
24.975
 20
10.686
 21
9.983
  0
LINE
  8
0
 10
24.975
 11
25.912
 20
9.983
 21
9.375
  0
LINE
  8
0
 10
25.912
 11
26.908
 20
9.375
 21
8.867
  0
LINE
  8
0
 10
26.908
 11
27.951
 20
8.867
 21
8.467
  0
LINE
  8
0
 10
27.951
 11
29.031
 20
8.467
 21
8.178
  0
LINE
  8
0
 10
29.031
 11
30.134
 20
8.178
 21
8.003
  0
LINE
  8
0
 10
30.134
 11
30.688
 20
8.003
 21
7.974
  0
LINE
  8
0
 10
30.688
 11
31.056
 20
7.974
 21
6.601
  0
LINE
  8
0
 10
31.056
 11
31.576
 20
6.601
 21
3.319
  0
LINE
  8
0
 10
31.576
 11
31.75
 20
3.319
 21
0
  0
LINE
  8
0
 10
31.75
 11
31.576
 20
0
 21
-3.319
  0
LINE
  8
0
 10
31.576
 11
31.056
 20
-3.319
 21
-6.601
  0
LINE
  8
0
 10
31.056
 11
30.196
 20
-6.601
 21
-9.811
  0
LINE
  8
0
 10
30.196
 11
29.005
 20
-9.811
 21
-12.914
  0
LINE
  8
0
 10
29.005
 11
27.496
 20
-12.914
 21
-15.875
  0
LINE
  8
0
 10
27.496
 11
25.686
 20
-15.875
 21
-18.662
  0
LINE
  8
0
 10
25.686
 11
23.595
 20
-18.662
 21
-21.245
  0
LINE
  8
0
 10
23.595
 11
21.245
 20
-21.245
 21
-23.595
  0
LINE
  8
0
 10
21.245
 11
18.662
 20
-23.595
 21
-25.686
  0
LINE
  8
0
 10
18.662
 11
15.875
 20
-25.686
 21
-27.496
  0
LINE
  8
0
 10
15.875
 11
12.914
 20
-27.496
 21
-29.005
  0
LINE
  8
0
 10
12.914
 11
9.811
 20
-29.005
 21
-30.196
  0
LINE
  8
0
 10
9.811
 11
8.439
 20
-30.196
 21
-30.564
  0
LINE
  8
0
 10
8.439
 11
8.136
 20
-30.564
 21
-30.098
  0
LINE
  8
0
 10
8.136
 11
7.433
 20
-30.098
 21
-29.23
  0
LINE
  8
0
 10
7.433
 11
6.643
 20
-29.23
 21
-28.44
  0
LINE
  8
0
 10
6.643
 11
5.775
 20
-28.44
 21
-27.737
  0
LINE
  8
0
 10
5.775
 11
4.837
 20
-27.737
 21
-27.128
  0
LINE
  8
0
 10
4.837
 11
3.842
 20
-27.128
 21
-26.621
  0
LINE
  8
0
 10
3.842
 11
2.799
 20
-26.621
 21
-26.221
  0
LINE
  8
0
 10
2.799
 11
1.719
 20
-26.221
 21
-25.931
  0
LINE
  8
0
 10
1.719
 11
0.616
 20
-25.931
 21
-25.757
  0
LINE
  8
0
 10
0.616
 11
-0.5
 20
-25.757
 21
-25.698
  0
LINE
  8
0
 10
-0.5
 11
-1.616
 20
-25.698
 21
-25.757
  0
LINE
  8
0
 10
-1.616
 11
-2.719
 20
-25.757
 21
-25.931
  0
LINE
  8
0
 10
-2.719
 11
-3.799
 20
-25.931
 21
-26.221
  0
LINE
  8
0
 10
-3.799
 11
-4.842
 20
-26.221
 21
-26.621
  0
LINE
  8
0
 10
-4.842
 11
-5.837
 20
-26.621
 21
-27.128
  0
LINE
  8
0
 10
-5.837
 11
-6.775
 20
-27.128
 21
-27.737
  0
LINE
  8
0
 10
-6.775
 11
-7.643
 20
-27.737
 21
-28.44
  0
LINE
  8
0
 10
-7.643
 11
-8.433
 20
-28.44
 21
-29.23
  0
LINE
  8
0
 10
-8.433
 11
-9.136
 20
-29.23
 21
-30.098
  0
LINE
  8
0
 10
-9.136
 11
-9.29
 20
-30.098
 21
-30.336
  0
LINE
  8
0
 10
-9.29
 11
-9.811
 20
-30.336
 21
-30.196
  0
LINE
  8
0
 10
-9.811
 11
-12.914
 20
-30.196
 21
-29.005
  0
LINE
  8
0
 10
-12.914
 11
-15.875
 20
-29.005
 21
-27.496
  0
LINE
  8
0
 10
-15.875
 11
-18.662
 20
-27.496
 21
-25.686
  0
LINE
  8
0
 10
-18.662
 11
-21.245
 20
-25.686
 21
-23.595
  0
LINE
  8
0
 10
-21.245
 11
-23.595
 20
-23.595
 21
-21.245
  0
LINE
  8
0
 10
-23.595
 11
-25.686
 20
-21.245
 21
-18.662
  0
LINE
  8
0
 10
-25.686
 11
-27.496
 20
-18.662
 21
-15.875
  0
LINE
  8
0
 10
-27.496
 11
-29.005
 20
-15.875
 21
-12.914
  0
LINE
  8
0
 10
-29.005
 11
-30.196
 20
-12.914
 21
-9.811
  0
LINE
  8
0
 10
-30.196
 11
-31.056
 20
-9.811
 21
-6.601
  0
LINE
  8
0
 10
-31.056
 11
-31.576
 20
-6.601
 21
-3.319
  0
LINE
  8
0
 10
-31.576
 11
-31.75
 20
-3.319
 21
0
  0
ENDSEC
  0
SECTION
  2
OBJECTS
  0
DICTIONARY
  0
ENDSEC
  0
EOF
