  0
SECTION
  2
BLOCKS
  0
ENDSEC
  0
SECTION
  2
ENTITIES
  0
LINE
  8
0
 10
-38.25
 11
-38.04
 20
0
 21
3.998
  0
LINE
  8
0
 10
-38.04
 11
-37.414
 20
3.998
 21
7.953
  0
LINE
  8
0
 10
-37.414
 11
-36.378
 20
7.953
 21
11.82
  0
LINE
  8
0
 10
-36.378
 11
-34.943
 20
11.82
 21
15.558
  0
LINE
  8
0
 10
-34.943
 11
-33.125
 20
15.558
 21
19.125
  0
LINE
  8
0
 10
-33.125
 11
-30.945
 20
19.125
 21
22.483
  0
LINE
  8
0
 10
-30.945
 11
-28.425
 20
22.483
 21
25.594
  0
LINE
  8
0
 10
-28.425
 11
-25.594
 20
25.594
 21
28.425
  0
LINE
  8
0
 10
-25.594
 11
-22.483
 20
28.425
 21
30.945
  0
LINE
  8
0
 10
-22.483
 11
-19.125
 20
30.945
 21
33.125
  0
LINE
  8
0
 10
-19.125
 11
-15.558
 20
33.125
 21
34.943
  0
LINE
  8
0
 10
-15.558
 11
-11.82
 20
34.943
 21
36.378
  0
LINE
  8
0
 10
-11.82
 11
-7.953
 20
36.378
 21
37.414
  0
LINE
  8
0
 10
-7.953
 11
-3.998
 20
37.414
 21
38.04
  0
LINE
  8
0
 10
-3.998
 11
0
 20
38.04
 21
38.25
  0
LINE
  8
0
 10
0
 11
3.998
 20
38.25
 21
38.04
  0
LINE
  8
0
 10
3.998
 11
7.953
 20
38.04
 21
37.414
  0
LINE
  8
0
 10
7.953
 11
11.82
 20
37.414
 21
36.378
  0
LINE
  8
0
 10
11.82
 11
15.558
 20
36.378
 21
34.943
  0
LINE
  8
0
 10
15.558
 11
19.125
 20
34.943
 21
33.125
  0
LINE
  8
0
 10
19.125
 11
22.483
 20
33.125
 21
30.945
  0
LINE
  8
0
 10
22.483
 11
25.594
 20
30.945
 21
28.425
  0
LINE
  8
0
 10
25.594
 11
28.425
 20
28.425
 21
25.594
  0
LINE
  8
0
 10
28.425
 11
30.945
 20
25.594
 21
22.483
  0
LINE
  8
0
 10
30.945
 11
33.125
 20
22.483
 21
19.125
  0
LINE
  8
0
 10
33.125
 11
34.943
 20
19.125
 21
15.558
  0
LINE
  8
0
 10
34.943
 11
36.378
 20
15.558
 21
11.82
  0
LINE
  8
0
 10
36.378
 11
37.414
 20
11.82
 21
7.953
  0
LINE
  8
0
 10
37.414
 11
38.04
 20
7.953
 21
3.998
  0
LINE
  8
0
 10
38.04
 11
38.25
 20
3.998
 21
0
  0
LINE
  8
0
 10
38.25
 11
38.04
 20
0
 21
-3.998
  0
LINE
  8
0
 10
38.04
 11
37.414
 20
-3.998
 21
-7.953
  0
LINE
  8
0
 10
37.414
 11
36.378
 20
-7.953
 21
-11.82
  0
LINE
  8
0
 10
36.378
 11
34.943
 20
-11.82
 21
-15.558
  0
LINE
  8
0
 10
34.943
 11
33.125
 20
-15.558
 21
-19.125
  0
LINE
  8
0
 10
33.125
 11
30.945
 20
-19.125
 21
-22.483
  0
LINE
  8
0
 10
30.945
 11
28.425
 20
-22.483
 21
-25.594
  0
LINE
  8
0
 10
28.425
 11
25.594
 20
-25.594
 21
-28.425
  0
LINE
  8
0
 10
25.594
 11
22.483
 20
-28.425
 21
-30.945
  0
LINE
  8
0
 10
22.483
 11
19.125
 20
-30.945
 21
-33.125
  0
LINE
  8
0
 10
19.125
 11
15.558
 20
-33.125
 21
-34.943
  0
LINE
  8
0
 10
15.558
 11
11.82
 20
-34.943
 21
-36.378
  0
LINE
  8
0
 10
11.82
 11
7.953
 20
-36.378
 21
-37.414
  0
LINE
  8
0
 10
7.953
 11
3.998
 20
-37.414
 21
-38.04
  0
LINE
  8
0
 10
3.998
 11
0
 20
-38.04
 21
-38.25
  0
LINE
  8
0
 10
0
 11
-3.998
 20
-38.25
 21
-38.04
  0
LINE
  8
0
 10
-3.998
 11
-7.953
 20
-38.04
 21
-37.414
  0
LINE
  8
0
 10
-7.953
 11
-11.82
 20
-37.414
 21
-36.378
  0
LINE
  8
0
 10
-11.82
 11
-15.558
 20
-36.378
 21
-34.943
  0
LINE
  8
0
 10
-15.558
 11
-19.125
 20
-34.943
 21
-33.125
  0
LINE
  8
0
 10
-19.125
 11
-22.483
 20
-33.125
 21
-30.945
  0
LINE
  8
0
 10
-22.483
 11
-25.594
 20
-30.945
 21
-28.425
  0
LINE
  8
0
 10
-25.594
 11
-28.425
 20
-28.425
 21
-25.594
  0
LINE
  8
0
 10
-28.425
 11
-30.945
 20
-25.594
 21
-22.483
  0
LINE
  8
0
 10
-30.945
 11
-33.125
 20
-22.483
 21
-19.125
  0
LINE
  8
0
 10
-33.125
 11
-34.943
 20
-19.125
 21
-15.558
  0
LINE
  8
0
 10
-34.943
 11
-36.378
 20
-15.558
 21
-11.82
  0
LINE
  8
0
 10
-36.378
 11
-37.414
 20
-11.82
 21
-7.953
  0
LINE
  8
0
 10
-37.414
 11
-38.04
 20
-7.953
 21
-3.998
  0
LINE
  8
0
 10
-38.04
 11
-38.25
 20
-3.998
 21
0
  0
LINE
  8
0
 10
-25.25
 11
-25.112
 20
0
 21
2.639
  0
LINE
  8
0
 10
-25.112
 11
-24.698
 20
2.639
 21
5.25
  0
LINE
  8
0
 10
-24.698
 11
-24.014
 20
5.25
 21
7.803
  0
LINE
  8
0
 10
-24.014
 11
-23.067
 20
7.803
 21
10.27
  0
LINE
  8
0
 10
-23.067
 11
-21.867
 20
10.27
 21
12.625
  0
LINE
  8
0
 10
-21.867
 11
-20.428
 20
12.625
 21
14.842
  0
LINE
  8
0
 10
-20.428
 11
-18.764
 20
14.842
 21
16.896
  0
LINE
  8
0
 10
-18.764
 11
-16.896
 20
16.896
 21
18.764
  0
LINE
  8
0
 10
-16.896
 11
-14.842
 20
18.764
 21
20.428
  0
LINE
  8
0
 10
-14.842
 11
-12.625
 20
20.428
 21
21.867
  0
LINE
  8
0
 10
-12.625
 11
-10.27
 20
21.867
 21
23.067
  0
LINE
  8
0
 10
-10.27
 11
-7.803
 20
23.067
 21
24.014
  0
LINE
  8
0
 10
-7.803
 11
-5.25
 20
24.014
 21
24.698
  0
LINE
  8
0
 10
-5.25
 11
-2.639
 20
24.698
 21
25.112
  0
LINE
  8
0
 10
-2.639
 11
0
 20
25.112
 21
25.25
  0
LINE
  8
0
 10
0
 11
2.639
 20
25.25
 21
25.112
  0
LINE
  8
0
 10
2.639
 11
5.25
 20
25.112
 21
24.698
  0
LINE
  8
0
 10
5.25
 11
7.803
 20
24.698
 21
24.014
  0
LINE
  8
0
 10
7.803
 11
10.27
 20
24.014
 21
23.067
  0
LINE
  8
0
 10
10.27
 11
12.625
 20
23.067
 21
21.867
  0
LINE
  8
0
 10
12.625
 11
14.842
 20
21.867
 21
20.428
  0
LINE
  8
0
 10
14.842
 11
16.896
 20
20.428
 21
18.764
  0
LINE
  8
0
 10
16.896
 11
18.764
 20
18.764
 21
16.896
  0
LINE
  8
0
 10
18.764
 11
20.428
 20
16.896
 21
14.842
  0
LINE
  8
0
 10
20.428
 11
21.867
 20
14.842
 21
12.625
  0
LINE
  8
0
 10
21.867
 11
23.067
 20
12.625
 21
10.27
  0
LINE
  8
0
 10
23.067
 11
24.014
 20
10.27
 21
7.803
  0
LINE
  8
0
 10
24.014
 11
24.698
 20
7.803
 21
5.25
  0
LINE
  8
0
 10
24.698
 11
25.112
 20
5.25
 21
2.639
  0
LINE
  8
0
 10
25.112
 11
25.25
 20
2.639
 21
0
  0
LINE
  8
0
 10
25.25
 11
25.112
 20
0
 21
-2.639
  0
LINE
  8
0
 10
25.112
 11
24.698
 20
-2.639
 21
-5.25
  0
LINE
  8
0
 10
24.698
 11
24.014
 20
-5.25
 21
-7.803
  0
LINE
  8
0
 10
24.014
 11
23.067
 20
-7.803
 21
-10.27
  0
LINE
  8
0
 10
23.067
 11
21.867
 20
-10.27
 21
-12.625
  0
LINE
  8
0
 10
21.867
 11
20.428
 20
-12.625
 21
-14.842
  0
LINE
  8
0
 10
20.428
 11
18.764
 20
-14.842
 21
-16.896
  0
LINE
  8
0
 10
18.764
 11
16.896
 20
-16.896
 21
-18.764
  0
LINE
  8
0
 10
16.896
 11
14.842
 20
-18.764
 21
-20.428
  0
LINE
  8
0
 10
14.842
 11
12.625
 20
-20.428
 21
-21.867
  0
LINE
  8
0
 10
12.625
 11
10.27
 20
-21.867
 21
-23.067
  0
LINE
  8
0
 10
10.27
 11
7.803
 20
-23.067
 21
-24.014
  0
LINE
  8
0
 10
7.803
 11
5.25
 20
-24.014
 21
-24.698
  0
LINE
  8
0
 10
5.25
 11
2.639
 20
-24.698
 21
-25.112
  0
LINE
  8
0
 10
2.639
 11
0
 20
-25.112
 21
-25.25
  0
LINE
  8
0
 10
0
 11
-2.639
 20
-25.25
 21
-25.112
  0
LINE
  8
0
 10
-2.639
 11
-5.25
 20
-25.112
 21
-24.698
  0
LINE
  8
0
 10
-5.25
 11
-7.803
 20
-24.698
 21
-24.014
  0
LINE
  8
0
 10
-7.803
 11
-10.27
 20
-24.014
 21
-23.067
  0
LINE
  8
0
 10
-10.27
 11
-12.625
 20
-23.067
 21
-21.867
  0
LINE
  8
0
 10
-12.625
 11
-14.842
 20
-21.867
 21
-20.428
  0
LINE
  8
0
 10
-14.842
 11
-16.896
 20
-20.428
 21
-18.764
  0
LINE
  8
0
 10
-16.896
 11
-18.764
 20
-18.764
 21
-16.896
  0
LINE
  8
0
 10
-18.764
 11
-20.428
 20
-16.896
 21
-14.842
  0
LINE
  8
0
 10
-20.428
 11
-21.867
 20
-14.842
 21
-12.625
  0
LINE
  8
0
 10
-21.867
 11
-23.067
 20
-12.625
 21
-10.27
  0
LINE
  8
0
 10
-23.067
 11
-24.014
 20
-10.27
 21
-7.803
  0
LINE
  8
0
 10
-24.014
 11
-24.698
 20
-7.803
 21
-5.25
  0
LINE
  8
0
 10
-24.698
 11
-25.112
 20
-5.25
 21
-2.639
  0
LINE
  8
0
 10
-25.112
 11
-25.25
 20
-2.639
 21
0
  0
LINE
  8
0
 10
-21.35
 11
-21.292
 20
-6.163
 21
-5.047
  0
LINE
  8
0
 10
-21.292
 11
-21.117
 20
-5.047
 21
-3.944
  0
LINE
  8
0
 10
-21.117
 11
-20.828
 20
-3.944
 21
-2.864
  0
LINE
  8
0
 10
-20.828
 11
-20.427
 20
-2.864
 21
-1.821
  0
LINE
  8
0
 10
-20.427
 11
-19.92
 20
-1.821
 21
-0.826
  0
LINE
  8
0
 10
-19.92
 11
-19.311
 20
-0.826
 21
0.111
  0
LINE
  8
0
 10
-19.311
 11
-18.608
 20
0.111
 21
0.98
  0
LINE
  8
0
 10
-18.608
 11
-17.818
 20
0.98
 21
1.77
  0
LINE
  8
0
 10
-17.818
 11
-16.95
 20
1.77
 21
2.473
  0
LINE
  8
0
 10
-16.95
 11
-16.012
 20
2.473
 21
3.082
  0
LINE
  8
0
 10
-16.012
 11
-15.017
 20
3.082
 21
3.589
  0
LINE
  8
0
 10
-15.017
 11
-13.974
 20
3.589
 21
3.989
  0
LINE
  8
0
 10
-13.974
 11
-12.894
 20
3.989
 21
4.279
  0
LINE
  8
0
 10
-12.894
 11
-11.791
 20
4.279
 21
4.453
  0
LINE
  8
0
 10
-11.791
 11
-10.675
 20
4.453
 21
4.512
  0
LINE
  8
0
 10
-10.675
 11
-9.559
 20
4.512
 21
4.453
  0
LINE
  8
0
 10
-9.559
 11
-8.456
 20
4.453
 21
4.279
  0
LINE
  8
0
 10
-8.456
 11
-7.376
 20
4.279
 21
3.989
  0
LINE
  8
0
 10
-7.376
 11
-6.333
 20
3.989
 21
3.589
  0
LINE
  8
0
 10
-6.333
 11
-6.186
 20
3.589
 21
3.514
  0
LINE
  8
0
 10
-6.186
 11
-6.163
 20
3.514
 21
3.558
  0
LINE
  8
0
 10
-6.163
 11
-6.136
 20
3.558
 21
3.6
  0
LINE
  8
0
 10
-6.136
 11
-6.275
 20
3.6
 21
3.69
  0
LINE
  8
0
 10
-6.275
 11
-7.143
 20
3.69
 21
4.393
  0
LINE
  8
0
 10
-7.143
 11
-7.933
 20
4.393
 21
5.183
  0
LINE
  8
0
 10
-7.933
 11
-8.636
 20
5.183
 21
6.052
  0
LINE
  8
0
 10
-8.636
 11
-9.245
 20
6.052
 21
6.989
  0
LINE
  8
0
 10
-9.245
 11
-9.752
 20
6.989
 21
7.985
  0
LINE
  8
0
 10
-9.752
 11
-10.153
 20
7.985
 21
9.028
  0
LINE
  8
0
 10
-10.153
 11
-10.442
 20
9.028
 21
10.107
  0
LINE
  8
0
 10
-10.442
 11
-10.617
 20
10.107
 21
11.211
  0
LINE
  8
0
 10
-10.617
 11
-10.675
 20
11.211
 21
12.326
  0
LINE
  8
0
 10
-10.675
 11
-10.617
 20
12.326
 21
13.442
  0
LINE
  8
0
 10
-10.617
 11
-10.442
 20
13.442
 21
14.546
  0
LINE
  8
0
 10
-10.442
 11
-10.153
 20
14.546
 21
15.625
  0
LINE
  8
0
 10
-10.153
 11
-9.752
 20
15.625
 21
16.668
  0
LINE
  8
0
 10
-9.752
 11
-9.245
 20
16.668
 21
17.664
  0
LINE
  8
0
 10
-9.245
 11
-8.636
 20
17.664
 21
18.601
  0
LINE
  8
0
 10
-8.636
 11
-7.933
 20
18.601
 21
19.469
  0
LINE
  8
0
 10
-7.933
 11
-7.143
 20
19.469
 21
20.259
  0
LINE
  8
0
 10
-7.143
 11
-6.275
 20
20.259
 21
20.963
  0
LINE
  8
0
 10
-6.275
 11
-5.337
 20
20.963
 21
21.571
  0
LINE
  8
0
 10
-5.337
 11
-4.342
 20
21.571
 21
22.079
  0
LINE
  8
0
 10
-4.342
 11
-3.299
 20
22.079
 21
22.479
  0
LINE
  8
0
 10
-3.299
 11
-2.219
 20
22.479
 21
22.768
  0
LINE
  8
0
 10
-2.219
 11
-1.116
 20
22.768
 21
22.943
  0
LINE
  8
0
 10
-1.116
 11
0
 20
22.943
 21
23.001
  0
LINE
  8
0
 10
0
 11
1.116
 20
23.001
 21
22.943
  0
LINE
  8
0
 10
1.116
 11
2.219
 20
22.943
 21
22.768
  0
LINE
  8
0
 10
2.219
 11
3.299
 20
22.768
 21
22.479
  0
LINE
  8
0
 10
3.299
 11
4.342
 20
22.479
 21
22.079
  0
LINE
  8
0
 10
4.342
 11
5.337
 20
22.079
 21
21.571
  0
LINE
  8
0
 10
5.337
 11
6.275
 20
21.571
 21
20.963
  0
LINE
  8
0
 10
6.275
 11
7.143
 20
20.963
 21
20.259
  0
LINE
  8
0
 10
7.143
 11
7.933
 20
20.259
 21
19.469
  0
LINE
  8
0
 10
7.933
 11
8.636
 20
19.469
 21
18.601
  0
LINE
  8
0
 10
8.636
 11
9.245
 20
18.601
 21
17.664
  0
LINE
  8
0
 10
9.245
 11
9.752
 20
17.664
 21
16.668
  0
LINE
  8
0
 10
9.752
 11
10.153
 20
16.668
 21
15.625
  0
LINE
  8
0
 10
10.153
 11
10.442
 20
15.625
 21
14.546
  0
LINE
  8
0
 10
10.442
 11
10.617
 20
14.546
 21
13.442
  0
LINE
  8
0
 10
10.617
 11
10.675
 20
13.442
 21
12.326
  0
LINE
  8
0
 10
10.675
 11
10.617
 20
12.326
 21
11.211
  0
LINE
  8
0
 10
10.617
 11
10.442
 20
11.211
 21
10.107
  0
LINE
  8
0
 10
10.442
 11
10.153
 20
10.107
 21
9.028
  0
LINE
  8
0
 10
10.153
 11
9.752
 20
9.028
 21
7.985
  0
LINE
  8
0
 10
9.752
 11
9.245
 20
7.985
 21
6.989
  0
LINE
  8
0
 10
9.245
 11
8.636
 20
6.989
 21
6.052
  0
LINE
  8
0
 10
8.636
 11
7.933
 20
6.052
 21
5.183
  0
LINE
  8
0
 10
7.933
 11
7.143
 20
5.183
 21
4.393
  0
LINE
  8
0
 10
7.143
 11
6.275
 20
4.393
 21
3.69
  0
LINE
  8
0
 10
6.275
 11
6.136
 20
3.69
 21
3.6
  0
LINE
  8
0
 10
6.136
 11
6.163
 20
3.6
 21
3.558
  0
LINE
  8
0
 10
6.163
 11
6.186
 20
3.558
 21
3.514
  0
LINE
  8
0
 10
6.186
 11
6.333
 20
3.514
 21
3.589
  0
LINE
  8
0
 10
6.333
 11
7.376
 20
3.589
 21
3.989
  0
LINE
  8
0
 10
7.376
 11
8.456
 20
3.989
 21
4.279
  0
LINE
  8
0
 10
8.456
 11
9.559
 20
4.279
 21
4.453
  0
LINE
  8
0
 10
9.559
 11
10.675
 20
4.453
 21
4.512
  0
LINE
  8
0
 10
10.675
 11
11.791
 20
4.512
 21
4.453
  0
LINE
  8
0
 10
11.791
 11
12.894
 20
4.453
 21
4.279
  0
LINE
  8
0
 10
12.894
 11
13.974
 20
4.279
 21
3.989
  0
LINE
  8
0
 10
13.974
 11
15.017
 20
3.989
 21
3.589
  0
LINE
  8
0
 10
15.017
 11
16.012
 20
3.589
 21
3.082
  0
LINE
  8
0
 10
16.012
 11
16.95
 20
3.082
 21
2.473
  0
LINE
  8
0
 10
16.95
 11
17.818
 20
2.473
 21
1.77
  0
LINE
  8
0
 10
17.818
 11
18.608
 20
1.77
 21
0.98
  0
LINE
  8
0
 10
18.608
 11
19.311
 20
0.98
 21
0.111
  0
LINE
  8
0
 10
19.311
 11
19.92
 20
0.111
 21
-0.826
  0
LINE
  8
0
 10
19.92
 11
20.427
 20
-0.826
 21
-1.821
  0
LINE
  8
0
 10
20.427
 11
20.828
 20
-1.821
 21
-2.864
  0
LINE
  8
0
 10
20.828
 11
21.117
 20
-2.864
 21
-3.944
  0
LINE
  8
0
 10
21.117
 11
21.292
 20
-3.944
 21
-5.047
  0
LINE
  8
0
 10
21.292
 11
21.35
 20
-5.047
 21
-6.163
  0
LINE
  8
0
 10
21.35
 11
21.292
 20
-6.163
 21
-7.279
  0
LINE
  8
0
 10
21.292
 11
21.117
 20
-7.279
 21
-8.383
  0
LINE
  8
0
 10
21.117
 11
20.828
 20
-8.383
 21
-9.462
  0
LINE
  8
0
 10
20.828
 11
20.427
 20
-9.462
 21
-10.505
  0
LINE
  8
0
 10
20.427
 11
19.92
 20
-10.505
 21
-11.501
  0
LINE
  8
0
 10
19.92
 11
19.311
 20
-11.501
 21
-12.438
  0
LINE
  8
0
 10
19.311
 11
18.608
 20
-12.438
 21
-13.306
  0
LINE
  8
0
 10
18.608
 11
17.818
 20
-13.306
 21
-14.096
  0
LINE
  8
0
 10
17.818
 11
16.95
 20
-14.096
 21
-14.799
  0
LINE
  8
0
 10
16.95
 11
16.012
 20
-14.799
 21
-15.408
  0
LINE
  8
0
 10
16.012
 11
15.017
 20
-15.408
 21
-15.915
  0
LINE
  8
0
 10
15.017
 11
13.974
 20
-15.915
 21
-16.316
  0
LINE
  8
0
 10
13.974
 11
12.894
 20
-16.316
 21
-16.605
  0
LINE
  8
0
 10
12.894
 11
11.791
 20
-16.605
 21
-16.78
  0
LINE
  8
0
 10
11.791
 11
10.675
 20
-16.78
 21
-16.838
  0
LINE
  8
0
 10
10.675
 11
9.559
 20
-16.838
 21
-16.78
  0
LINE
  8
0
 10
9.559
 11
8.456
 20
-16.78
 21
-16.605
  0
LINE
  8
0
 10
8.456
 11
7.376
 20
-16.605
 21
-16.316
  0
LINE
  8
0
 10
7.376
 11
6.333
 20
-16.316
 21
-15.915
  0
LINE
  8
0
 10
6.333
 11
5.337
 20
-15.915
 21
-15.408
  0
LINE
  8
0
 10
5.337
 11
4.4
 20
-15.408
 21
-14.799
  0
LINE
  8
0
 10
4.4
 11
3.532
 20
-14.799
 21
-14.096
  0
LINE
  8
0
 10
3.532
 11
2.742
 20
-14.096
 21
-13.306
  0
LINE
  8
0
 10
2.742
 11
2.039
 20
-13.306
 21
-12.438
  0
LINE
  8
0
 10
2.039
 11
1.43
 20
-12.438
 21
-11.501
  0
LINE
  8
0
 10
1.43
 11
0.923
 20
-11.501
 21
-10.505
  0
LINE
  8
0
 10
0.923
 11
0.522
 20
-10.505
 21
-9.462
  0
LINE
  8
0
 10
0.522
 11
0.233
 20
-9.462
 21
-8.383
  0
LINE
  8
0
 10
0.233
 11
0.058
 20
-8.383
 21
-7.279
  0
LINE
  8
0
 10
0.058
 11
0.05
 20
-7.279
 21
-7.114
  0
LINE
  8
0
 10
0.05
 11
0
 20
-7.114
 21
-7.117
  0
LINE
  8
0
 10
0
 11
-0.05
 20
-7.117
 21
-7.114
  0
LINE
  8
0
 10
-0.05
 11
-0.058
 20
-7.114
 21
-7.279
  0
LINE
  8
0
 10
-0.058
 11
-0.233
 20
-7.279
 21
-8.383
  0
LINE
  8
0
 10
-0.233
 11
-0.522
 20
-8.383
 21
-9.462
  0
LINE
  8
0
 10
-0.522
 11
-0.923
 20
-9.462
 21
-10.505
  0
LINE
  8
0
 10
-0.923
 11
-1.43
 20
-10.505
 21
-11.501
  0
LINE
  8
0
 10
-1.43
 11
-2.039
 20
-11.501
 21
-12.438
  0
LINE
  8
0
 10
-2.039
 11
-2.742
 20
-12.438
 21
-13.306
  0
LINE
  8
0
 10
-2.742
 11
-3.532
 20
-13.306
 21
-14.096
  0
LINE
  8
0
 10
-3.532
 11
-4.4
 20
-14.096
 21
-14.799
  0
LINE
  8
0
 10
-4.4
 11
-5.337
 20
-14.799
 21
-15.408
  0
LINE
  8
0
 10
-5.337
 11
-6.333
 20
-15.408
 21
-15.915
  0
LINE
  8
0
 10
-6.333
 11
-7.376
 20
-15.915
 21
-16.316
  0
LINE
  8
0
 10
-7.376
 11
-8.456
 20
-16.316
 21
-16.605
  0
LINE
  8
0
 10
-8.456
 11
-9.559
 20
-16.605
 21
-16.78
  0
LINE
  8
0
 10
-9.559
 11
-10.675
 20
-16.78
 21
-16.838
  0
LINE
  8
0
 10
-10.675
 11
-11.791
 20
-16.838
 21
-16.78
  0
LINE
  8
0
 10
-11.791
 11
-12.894
 20
-16.78
 21
-16.605
  0
LINE
  8
0
 10
-12.894
 11
-13.974
 20
-16.605
 21
-16.316
  0
LINE
  8
0
 10
-13.974
 11
-15.017
 20
-16.316
 21
-15.915
  0
LINE
  8
0
 10
-15.017
 11
-16.012
 20
-15.915
 21
-15.408
  0
LINE
  8
0
 10
-16.012
 11
-16.95
 20
-15.408
 21
-14.799
  0
LINE
  8
0
 10
-16.95
 11
-17.818
 20
-14.799
 21
-14.096
  0
LINE
  8
0
 10
-17.818
 11
-18.608
 20
-14.096
 21
-13.306
  0
LINE
  8
0
 10
-18.608
 11
-19.311
 20
-13.306
 21
-12.438
  0
LINE
  8
0
 10
-19.311
 11
-19.92
 20
-12.438
 21
-11.501
  0
LINE
  8
0
 10
-19.92
 11
-20.427
 20
-11.501
 21
-10.505
  0
LINE
  8
0
 10
-20.427
 11
-20.828
 20
-10.505
 21
-9.462
  0
LINE
  8
0
 10
-20.828
 11
-21.117
 20
-9.462
 21
-8.383
  0
LINE
  8
0
 10
-21.117
 11
-21.292
 20
-8.383
 21
-7.279
  0
LINE
  8
0
 10
-21.292
 11
-21.35
 20
-7.279
 21
-6.163
  0
LINE
  8
0
 10
-25.15
 11
-25.012
 20
0
 21
2.629
  0
LINE
  8
0
 10
-25.012
 11
-24.6
 20
2.629
 21
5.229
  0
LINE
  8
0
 10
-24.6
 11
-23.919
 20
5.229
 21
7.772
  0
LINE
  8
0
 10
-23.919
 11
-22.976
 20
7.772
 21
10.229
  0
LINE
  8
0
 10
-22.976
 11
-21.781
 20
10.229
 21
12.575
  0
LINE
  8
0
 10
-21.781
 11
-20.347
 20
12.575
 21
14.783
  0
LINE
  8
0
 10
-20.347
 11
-18.69
 20
14.783
 21
16.829
  0
LINE
  8
0
 10
-18.69
 11
-16.829
 20
16.829
 21
18.69
  0
LINE
  8
0
 10
-16.829
 11
-14.783
 20
18.69
 21
20.347
  0
LINE
  8
0
 10
-14.783
 11
-12.575
 20
20.347
 21
21.781
  0
LINE
  8
0
 10
-12.575
 11
-10.229
 20
21.781
 21
22.976
  0
LINE
  8
0
 10
-10.229
 11
-7.772
 20
22.976
 21
23.919
  0
LINE
  8
0
 10
-7.772
 11
-5.229
 20
23.919
 21
24.6
  0
LINE
  8
0
 10
-5.229
 11
-2.629
 20
24.6
 21
25.012
  0
LINE
  8
0
 10
-2.629
 11
0
 20
25.012
 21
25.15
  0
LINE
  8
0
 10
0
 11
2.629
 20
25.15
 21
25.012
  0
LINE
  8
0
 10
2.629
 11
5.229
 20
25.012
 21
24.6
  0
LINE
  8
0
 10
5.229
 11
7.772
 20
24.6
 21
23.919
  0
LINE
  8
0
 10
7.772
 11
10.229
 20
23.919
 21
22.976
  0
LINE
  8
0
 10
10.229
 11
12.575
 20
22.976
 21
21.781
  0
LINE
  8
0
 10
12.575
 11
14.783
 20
21.781
 21
20.347
  0
LINE
  8
0
 10
14.783
 11
16.829
 20
20.347
 21
18.69
  0
LINE
  8
0
 10
16.829
 11
18.69
 20
18.69
 21
16.829
  0
LINE
  8
0
 10
18.69
 11
20.347
 20
16.829
 21
14.783
  0
LINE
  8
0
 10
20.347
 11
21.781
 20
14.783
 21
12.575
  0
LINE
  8
0
 10
21.781
 11
22.976
 20
12.575
 21
10.229
  0
LINE
  8
0
 10
22.976
 11
23.919
 20
10.229
 21
7.772
  0
LINE
  8
0
 10
23.919
 11
24.6
 20
7.772
 21
5.229
  0
LINE
  8
0
 10
24.6
 11
25.012
 20
5.229
 21
2.629
  0
LINE
  8
0
 10
25.012
 11
25.15
 20
2.629
 21
0
  0
LINE
  8
0
 10
25.15
 11
25.012
 20
0
 21
-2.629
  0
LINE
  8
0
 10
25.012
 11
24.6
 20
-2.629
 21
-5.229
  0
LINE
  8
0
 10
24.6
 11
23.919
 20
-5.229
 21
-7.772
  0
LINE
  8
0
 10
23.919
 11
22.976
 20
-7.772
 21
-10.229
  0
LINE
  8
0
 10
22.976
 11
21.781
 20
-10.229
 21
-12.575
  0
LINE
  8
0
 10
21.781
 11
20.347
 20
-12.575
 21
-14.783
  0
LINE
  8
0
 10
20.347
 11
18.69
 20
-14.783
 21
-16.829
  0
LINE
  8
0
 10
18.69
 11
16.829
 20
-16.829
 21
-18.69
  0
LINE
  8
0
 10
16.829
 11
14.783
 20
-18.69
 21
-20.347
  0
LINE
  8
0
 10
14.783
 11
12.575
 20
-20.347
 21
-21.781
  0
LINE
  8
0
 10
12.575
 11
10.229
 20
-21.781
 21
-22.976
  0
LINE
  8
0
 10
10.229
 11
7.772
 20
-22.976
 21
-23.919
  0
LINE
  8
0
 10
7.772
 11
5.229
 20
-23.919
 21
-24.6
  0
LINE
  8
0
 10
5.229
 11
2.629
 20
-24.6
 21
-25.012
  0
LINE
  8
0
 10
2.629
 11
0
 20
-25.012
 21
-25.15
  0
LINE
  8
0
 10
0
 11
-2.629
 20
-25.15
 21
-25.012
  0
LINE
  8
0
 10
-2.629
 11
-5.229
 20
-25.012
 21
-24.6
  0
LINE
  8
0
 10
-5.229
 11
-7.772
 20
-24.6
 21
-23.919
  0
LINE
  8
0
 10
-7.772
 11
-10.229
 20
-23.919
 21
-22.976
  0
LINE
  8
0
 10
-10.229
 11
-12.575
 20
-22.976
 21
-21.781
  0
LINE
  8
0
 10
-12.575
 11
-14.783
 20
-21.781
 21
-20.347
  0
LINE
  8
0
 10
-14.783
 11
-16.829
 20
-20.347
 21
-18.69
  0
LINE
  8
0
 10
-16.829
 11
-18.69
 20
-18.69
 21
-16.829
  0
LINE
  8
0
 10
-18.69
 11
-20.347
 20
-16.829
 21
-14.783
  0
LINE
  8
0
 10
-20.347
 11
-21.781
 20
-14.783
 21
-12.575
  0
LINE
  8
0
 10
-21.781
 11
-22.976
 20
-12.575
 21
-10.229
  0
LINE
  8
0
 10
-22.976
 11
-23.919
 20
-10.229
 21
-7.772
  0
LINE
  8
0
 10
-23.919
 11
-24.6
 20
-7.772
 21
-5.229
  0
LINE
  8
0
 10
-24.6
 11
-25.012
 20
-5.229
 21
-2.629
  0
LINE
  8
0
 10
-25.012
 11
-25.15
 20
-2.629
 21
0
  0
ENDSEC
  0
SECTION
  2
OBJECTS
  0
DICTIONARY
  0
ENDSEC
  0
EOF
